<mxfile host="65bd71144e">
    <diagram id="oxW2Mkj1MHfi70HkBJxm" name="Page-1">
        <mxGraphModel dx="1145" dy="1650" grid="1" gridSize="10" guides="1" tooltips="1" connect="1" arrows="1" fold="1" page="1" pageScale="1" pageWidth="1100" pageHeight="850" math="0" shadow="0">
            <root>
                <mxCell id="0"/>
                <mxCell id="1" parent="0"/>
                <mxCell id="2" value="&lt;pre style=&quot;border-width: 0px 0px 0px 2px; border-style: solid; border-color: var(--border-tertiary); border-image: initial; box-sizing: border-box; overflow-wrap: break-word; --tw-border-spacing-x: 0; --tw-border-spacing-y: 0; --tw-translate-x: 0; --tw-translate-y: 0; --tw-rotate: 0; --tw-skew-x: 0; --tw-skew-y: 0; --tw-scale-x: 1; --tw-scale-y: 1; --tw-pan-x: ; --tw-pan-y: ; --tw-pinch-zoom: ; --tw-scroll-snap-strictness: proximity; --tw-gradient-from-position: ; --tw-gradient-via-position: ; --tw-gradient-to-position: ; --tw-ordinal: ; --tw-slashed-zero: ; --tw-numeric-figure: ; --tw-numeric-spacing: ; --tw-numeric-fraction: ; --tw-ring-inset: ; --tw-ring-offset-width: 0px; --tw-ring-offset-color: #fff; --tw-ring-color: #3b82f680; --tw-ring-offset-shadow: 0 0 #0000; --tw-ring-shadow: 0 0 #0000; --tw-shadow: 0 0 #0000; --tw-shadow-colored: 0 0 #0000; --tw-blur: ; --tw-brightness: ; --tw-contrast: ; --tw-grayscale: ; --tw-hue-rotate: ; --tw-invert: ; --tw-saturate: ; --tw-sepia: ; --tw-drop-shadow: ; --tw-backdrop-blur: ; --tw-backdrop-brightness: ; --tw-backdrop-contrast: ; --tw-backdrop-grayscale: ; --tw-backdrop-hue-rotate: ; --tw-backdrop-invert: ; --tw-backdrop-opacity: ; --tw-backdrop-saturate: ; --tw-backdrop-sepia: ; font-family: Menlo, sans-serif; font-size: 14px; margin: 1rem 0px; overflow: visible; color: var(--text-secondary); line-height: 1.25rem; padding-left: 1rem; font-style: normal; font-variant-ligatures: normal; font-variant-caps: normal; font-weight: 400; letter-spacing: normal; orphans: 2; text-align: start; text-indent: 0px; text-transform: none; widows: 2; word-spacing: 0px; -webkit-text-stroke-width: 0px; background-color: rgb(15, 15, 15); text-decoration-thickness: initial; text-decoration-style: initial; text-decoration-color: initial;&quot;&gt;[1,5,1,1,6,4]&lt;/pre&gt;" style="text;whiteSpace=wrap;html=1;" vertex="1" parent="1">
                    <mxGeometry width="130" height="80" as="geometry"/>
                </mxCell>
                <mxCell id="3" value="&lt;pre style=&quot;border-width: 0px 0px 0px 2px; border-style: solid; border-color: var(--border-tertiary); border-image: initial; box-sizing: border-box; overflow-wrap: break-word; --tw-border-spacing-x: 0; --tw-border-spacing-y: 0; --tw-translate-x: 0; --tw-translate-y: 0; --tw-rotate: 0; --tw-skew-x: 0; --tw-skew-y: 0; --tw-scale-x: 1; --tw-scale-y: 1; --tw-pan-x: ; --tw-pan-y: ; --tw-pinch-zoom: ; --tw-scroll-snap-strictness: proximity; --tw-gradient-from-position: ; --tw-gradient-via-position: ; --tw-gradient-to-position: ; --tw-ordinal: ; --tw-slashed-zero: ; --tw-numeric-figure: ; --tw-numeric-spacing: ; --tw-numeric-fraction: ; --tw-ring-inset: ; --tw-ring-offset-width: 0px; --tw-ring-offset-color: #fff; --tw-ring-color: #3b82f680; --tw-ring-offset-shadow: 0 0 #0000; --tw-ring-shadow: 0 0 #0000; --tw-shadow: 0 0 #0000; --tw-shadow-colored: 0 0 #0000; --tw-blur: ; --tw-brightness: ; --tw-contrast: ; --tw-grayscale: ; --tw-hue-rotate: ; --tw-invert: ; --tw-saturate: ; --tw-sepia: ; --tw-drop-shadow: ; --tw-backdrop-blur: ; --tw-backdrop-brightness: ; --tw-backdrop-contrast: ; --tw-backdrop-grayscale: ; --tw-backdrop-hue-rotate: ; --tw-backdrop-invert: ; --tw-backdrop-opacity: ; --tw-backdrop-saturate: ; --tw-backdrop-sepia: ; font-family: Menlo, sans-serif; font-size: 14px; margin: 1rem 0px; overflow: visible; color: var(--text-secondary); line-height: 1.25rem; padding-left: 1rem; font-style: normal; font-variant-ligatures: normal; font-variant-caps: normal; font-weight: 400; letter-spacing: normal; orphans: 2; text-align: start; text-indent: 0px; text-transform: none; widows: 2; word-spacing: 0px; -webkit-text-stroke-width: 0px; background-color: rgb(15, 15, 15); text-decoration-thickness: initial; text-decoration-style: initial; text-decoration-color: initial;&quot;&gt;[1,1,1,4,5,6]&lt;/pre&gt;" style="text;whiteSpace=wrap;html=1;" vertex="1" parent="1">
                    <mxGeometry y="50" width="130" height="80" as="geometry"/>
                </mxCell>
                <mxCell id="4" value="sort&amp;nbsp;" style="text;html=1;align=center;verticalAlign=middle;resizable=0;points=[];autosize=1;strokeColor=none;fillColor=none;" vertex="1" parent="1">
                    <mxGeometry x="135" y="65" width="50" height="30" as="geometry"/>
                </mxCell>
                <mxCell id="5" value="&lt;pre style=&quot;border-width: 0px 0px 0px 2px; border-style: solid; border-color: var(--border-tertiary); border-image: initial; box-sizing: border-box; overflow-wrap: break-word; --tw-border-spacing-x: 0; --tw-border-spacing-y: 0; --tw-translate-x: 0; --tw-translate-y: 0; --tw-rotate: 0; --tw-skew-x: 0; --tw-skew-y: 0; --tw-scale-x: 1; --tw-scale-y: 1; --tw-pan-x: ; --tw-pan-y: ; --tw-pinch-zoom: ; --tw-scroll-snap-strictness: proximity; --tw-gradient-from-position: ; --tw-gradient-via-position: ; --tw-gradient-to-position: ; --tw-ordinal: ; --tw-slashed-zero: ; --tw-numeric-figure: ; --tw-numeric-spacing: ; --tw-numeric-fraction: ; --tw-ring-inset: ; --tw-ring-offset-width: 0px; --tw-ring-offset-color: #fff; --tw-ring-color: #3b82f680; --tw-ring-offset-shadow: 0 0 #0000; --tw-ring-shadow: 0 0 #0000; --tw-shadow: 0 0 #0000; --tw-shadow-colored: 0 0 #0000; --tw-blur: ; --tw-brightness: ; --tw-contrast: ; --tw-grayscale: ; --tw-hue-rotate: ; --tw-invert: ; --tw-saturate: ; --tw-sepia: ; --tw-drop-shadow: ; --tw-backdrop-blur: ; --tw-backdrop-brightness: ; --tw-backdrop-contrast: ; --tw-backdrop-grayscale: ; --tw-backdrop-hue-rotate: ; --tw-backdrop-invert: ; --tw-backdrop-opacity: ; --tw-backdrop-saturate: ; --tw-backdrop-sepia: ; font-family: Menlo, sans-serif; font-size: 14px; margin: 1rem 0px; overflow: visible; color: var(--text-secondary); line-height: 1.25rem; padding-left: 1rem; font-style: normal; font-variant-ligatures: normal; font-variant-caps: normal; font-weight: 400; letter-spacing: normal; orphans: 2; text-align: start; text-indent: 0px; text-transform: none; widows: 2; word-spacing: 0px; -webkit-text-stroke-width: 0px; background-color: rgb(15, 15, 15); text-decoration-thickness: initial; text-decoration-style: initial; text-decoration-color: initial;&quot;&gt;[1,1,1,4,5,6]&lt;/pre&gt;" style="text;whiteSpace=wrap;html=1;" vertex="1" parent="1">
                    <mxGeometry y="130" width="130" height="80" as="geometry"/>
                </mxCell>
                <mxCell id="6" value="" style="shape=stencil(7Z3Jkh3HDUW/htuKnIe1LP+HIkSZDNOigqKnvzfSdFZ3Xbx3ir3zQjuqhfuqcsJwgUS9yz/8/uGn396/S+H3r18+//X9Pz/+/PXDu/yndyl9/PXD+y8fv9q/3uUf3+Uffvn85f1fvnz++68/f/vv335akutff/v8j/UL//qGm/OoY6FS+Pe3v4x5pPrfv/z5G+DTx1+vgNiugH6UAYBxjH4FtCNnBNR5BdQjBgQkAeSj0Sv1Y8orpSNFBLRwBYSj0xj6Ea/T2scx6Qnt6Ncn9HYH0CeUozcA1KOVKyAdhQHhutI9HJFeqRz1OobWj0GAfMzrE1o9Kk1r3lvtBNhfEgLCdaVbPBpt77TX9QSEI0wElOu0Vtvw9EpJF67aLBUAxGPKE9oxaAxR91Ktx6DzEPdGOAHlmPwEHUPm3RqOcT2iNR2DVjoctV4BNioaQ1C9VAPqJdNz/fqEMlHNGCALoB8dtsYYur1LOxrMkgFEGRc7Dx0B/1NbJ6DseXsM6HtvnoC8te0zQLnupZJ4DKa2ZAx24mClDVCvJ64EPKIGCNd1yPNoNEs2iddB53OiHwOK2ofc99o/AxR5gr0kPSHvA3kCyjFo8+UjyytlVJVm0eTEZVb3BigyraYW+AnhunDZDi09Ie6dswFpbk31DCDbO5lupSeEPYmvAAF0qwHkTCdbadDefW61dQLa9g2eAdJ14VJFRWaOQrvupVRQt/auK53ythjPAEEAaWuqx4B2JBl03CfkMaC6aY3bmXgMsAMksxS2iXkMyFupbEA09UyzZIb9+oQ48Dx0Z3ajeYGgKg0QBdB4WoPq1siecZv7BU5ARTe0OQtkgAALZ4B0XbhYjgyDNg9P7HTMOEvN5iQogBys5jZfTKiX2mkzT4C5DnAeWtEDZADSGgYQvRQDv1LWWZrowbW0PcIX+UhzZD7lVWewgTMnOItrf0zQeuYDty7ydNjqdI497lOTlzVu25t7LG/Duy5A3X94LN91PguO1+TVr9rG8bF805CVNbDJB/EX+P2rxj0ZXVWTD2I40bswd18cz3RUev+yt+OLfIb9ZtGB2mUkGUy+iME5Iu2fpL58wkjV5ENReRqveS5N5en9ozP6vJ+DuoMmD2p6hTY6/2QtTT7q/JO8RUI9qTzoH5PP7vdJfqgRuJUvbn5YPrj1ovF253Pdybv9n2D/FMfu2HlheXV8dwjzWL4qa3EeiGfySfVPAP1gUaWcr8zvX5SRy+jzWhDaJVLeP/BMPqk+J6KpOP1QMZ4rSX+/or+7QlyhmfaGeiav1BrPZ1B7PVD/r4A4ivyA+cyOo53oxOWh+uTGAbL4OV0PsLlYCWbI4meJqA1AHFauaoLNTaRo1ALuLoCMRskAwbm6FI1ahJ7Fcy07in8MSGpmIod+2YXgsSLptUJ68VwbBmYW0ku8a4AGW9UAutIdbd/iALoCiPQygCgXi+RIe63NXxRQYAwGyO4JxOku91m2xuRBdxejTFw4A4jGNgC5dKaBJOSwiJpiguQSCgYgEvjF534V5JPVMUAUr4jdnKXVswKIbFluuowh7xPyDCCBkwEKPSErVb5MFe2lvD3XVwDK0yzTLWOo27t6BtBXqqg1DBDkCY23hq2rrDTHfwbIjrjD8xD2G7+iBkkvJecBm+IJdESDmlzThbQ17HwJw2TaloyuAdLVKJoBIC91KRUBlK08nwGEMDKrR+xMHBrnLLtKgK4Mk1luovsNkCUyHbi9DSAZOXNWKBY3e9PF14sYfBlAgkdz58jsGkCOqPmXlFAwI6tZlMp7qepuLTfrUHf8egIGbm9zFCRiK2xQlisiSUI7gzSGvP/3CUioBAwgaRcL64mHW0SgeOmc+F8enqQhG2rvmHSla0eDYk6nnIc6ti58BhACtU40iuY4i3PSAiZFlqd93Rorpc0AIYNa2mz7Q8Dc6bdTPmNOZKqybwXNuiOlG58elxBpnM4eSr60hvuuK9HfOrq4XQ1DG+iwnhmlU56PZt/e7BkcBpz/pom7zn5Y0/3QM+qWqlFJL8x+OXK5YnBoMc71jPWOx76og9QHJjWK2oPBJR2O3Fx5SIqGH1QTkVXO+v4jI7ucXTBfkJ115OmomFDPLnnQOdpRX20VOqC8FB7NgGxQ0rB5JmRTolYcTGaPouqTWdkuqVmaDcvLgp5H+32an6BGaZ5MwxN5fZ+06Ztn8jLeiEUizl7MgG6pkx8Tz5eXbxjKenkucvHyCQMoNz8j3M3/VX5l4N/y+6YPO+4H1c8Fs0PB2YuCjtmj3w8sL/YlYzbPJRt6RnsXlBYwed5vyb0PZW/C5lZf2zs8L+WN8lLAdPs+zdlfHm8bb5vP7t6H16s7+877Qe3v3X5T+Yb+UlBCcJ0vPI/6/mck/n3ydt6pBi5o8mCcFueZ/HX/rOKtN8kXrCv08g2znV6ea5y8/ET76+ZnMlUfdq7mlM83+lP8DbOnxOxHpbfMXlP2xnHis2O2LWriwOSpbCcpKbn8B6I9tRzF5Gk/u9LA5c+gv6fFJRXfv6j+nKfH/kRe15cZz6p8vslTQFv1/K7Cc1ivprycyRP50py/Wu7iterkqe7L+YdcXXJqv++UH5q8XPJUBKmXG2bBeO3k616dX2SOvEOZ7yiO6ABkMQyQ3Cuhigguxrih/ILmI2dGJRcdQW2zSjUFBhC6bG1rnlYPoCxvDE4RVcxdeKppVtaMQamOya7uWjj3BMrkR+dcTi6nnUouvNyDeSbvXoiC+ekOJ1dYuvrhWXCG/O8XLF2YWlmzgkk+zLIn8na/nh5mB7ihH4VOmRnDt7WJgnsCb6LiAORQLEB3k8SD9ket8DatfplvnuD2NZW8RRelGIC0/GMA067yRje3V5zZuamMdzv7Tl7NZkO3vWvC70a+Ke19K682h9+/Orex4cUYR6OuO4JU5OQ011lq/YwWdW5shGNWNJc4+eJn1uTM7FgUmzepfMoPvNvnbuqZPIVlyamVyTk4N58Tr6xFPfIxBKxLCbt66DtfyKu5jn54cH7vXZwYnMdCOfigxUe3cV94Y1yp8ndxq8rfjveNcbeM9zauV/k73sDzkMxLKI93x3uo/B2vorziHW/zBw/5Bw/5Wv7/jofsKs+8ur7PHW+v8nd5Ac9Dct5B5e/yGjLe27yJyt/lZTSPyTVb7nKm2QsKZdyliJnRQYmPSADM61VxaLjqPzreLKD9SnofcIy7vKfkrTrSJC6vOjh2Tjr/th/4/SU0HHzes+rPkZBXdLzl4MKu7PqCBNQPWR3uzg5i1vHe2Mei798r+g/uklVnf8PdQu9cT+jrLiLWgVbdD52bmrRHdSwoL/alDdzP7mZo63zLWLmjxnUj7qpqY/+wawDQKhaxWgAsdU0F9/9w85M3CfBEXvZDS8hZTuU4W+SeG1rl2wKel8XsJAXccBaicevkSo2gdfV1cIFf1HLU2u8AkqyobR+jx4Ckq1wrVrsZQKZ13YakQWe1G5Wr3mN20xqxndEq5bwuXJnMThU1TWXwLBX1FUvjKt+qwVKpGP1Hp+3KTRbClbEVvuRqAN/JhM7/ur0v5dmTV7q5EvOBlUWroYDcw7tJVXZ3Ea/t6shnAGHBcsUgIg53lTkjKxGH65WS8BpVdNd3cuQa3KlHNPPVl+j6KpgupAxbcppvXRligMRmqyqUcsBBi1KX+eU7Gtpyo/IYorszXTAzklyTgZSxv4VPfBuA1H1KD+77kEeSsruHyxeD05kWPAGRc/FFg/y1MgwQLzVxV5zl5hUFkBvs8+WRS8xT1TMdJ+/WpkxFZL2U3P1mA+Cdpa5ZpMjk8GL/39SNJbmWDwYgb9WXja+LizRLQw27qWdSZKuJR1cAXvqbeq04sseaHYUVOSQxgFwbiXwzOrubXZGvXhtAro0YgCyQWQO9GsnXRnJ2PWsyuj/ZtR1cPhoV2BTXdydhe691GVnOQ+Sbv81dFQ544szu60rfBMPdJcKR7FjXuIRdQEfaXB3JqXasXiguO9G2f/ZMXq6o3wTbUY1PQWNVXEuQsr2IZ/JiSTgNbt6p3j/EvHxxbAdf2ilFa2YiOtylaBV8RH/b3PGo8tQjyeTFtw3cksJdwuP2jcWlawO34OiaXuRmpr4lCJ8v33LkVl72JycLfcuUG3nXkuVWvrvxUjbbZVd4vL5lza38cPMD+9O33Al4vnxLn4D72bcMCkh2m7zUTgU0GdXdE+cGeDWrieFLGot00PkhfVKLn0/yt6qzkdw9oLobrpFbivn+HhgEVqdPblokNRcD8ni7C/ZR/1R3y5DrrKpjBwu32HK3MCuel+ay35VbxrnsELdoa66ncMPxtqRsbkd7ZPJT/RMcb1Z7MdDfaI7ymugPrDuskt3CYgiTF4ZssaM0QT4oi/xGXfPrMSJDtq69Or8YX2ko57A8b3qlqUYycqM8A0iOMRYu+nJmZl2lp+LtqGVrkbNo3RkCC8qIRzTAcLEuBcc9q+tt0TRxcN1xDpEzXetCrqzDxB7kvSnbmgLmwnt/0DKWiJZ1h1eIlsQrPTS999Kb5THARSjLxaf8jCs4SRV9opd6nVcACl1HdJ14G/fvjq7nDrMaq+TIdUSmzTdcmVziqiIDyG59YSEeA7J2as/cC2w41Z3TXTtu8fXzTZdzl67IzGqMqpzDavhNs+SSrSuC57bo2eUGcFqbo8kn8lfDeTAWY5OaWeUIkqOJPIahK124z+YYyv1YGEzae908l1cqyP2sJv4S5lcsKlyfCRBA429UBE3fWSh596kDmSVuHjaDJoJr4K9gRN1LFv3QeZjuinxN6G1Pp2ZWvEEAVxxjAQR+1CKpr7E+akHZb0fQVK6Hnq4+pnJfOf9xkcq8+syanV4Zdlo41yqiMVM5XbqiFb4e47ogLreRdmvVqpfGjddX8wNXloKfYGlq48whwoVzF/B6Q25hukqQ3vl7J448NWcCvzDkOnWNiOGhAYR+GdzCdU6NNwZ3ZZlTt8aoyEmvT0O5Pg0UDhhAstODfY3pLh8N7sn/qqL+FYIuUTxG4Pd53I2xMVkNTNf/ZaKlXoCsAGywNPVG8ODKqznVFxgTS12ni7MWgParowsXgF+puVnC74ZNtUFrlhjw5k+Z3QHsHy9fTvvl46dP3z689vr/65fW7E/fvtKWf/wP);lineShape=1;" vertex="1" parent="1">
                    <mxGeometry x="32.58291458808742" y="141.52776466096373" width="52.81030813670774" height="16.266628940635158" as="geometry"/>
                </mxCell>
                <mxCell id="7" value="" style="shape=stencil(7ZxJ0hzHDYVPw21FzsNalu+hCFEmw7SooCgPtzfSVNbf9dD9VWjnhXYcEt05YHh4APpd/u7XDz/88v5dCr9+/fL57+//9fHHrx/e5b+8S+njzx/ef/n41f70Ln//Ln/30+cv7//25fNvP//47e+//LBWrj/94/M/1yf8+5vcnEeISyqF/3z7l96PMP/3L3/9JvDp48+PAuNI/SpQjpRBoB9lXgXi0QsItGOmq0A40kCB3zewBdo4Km2pHvV66NaO1kCgHOO6pVaPQGcoR7zeUstHoW/IR73eUkv7ol8JhHAViEekb0hHEYFwBLpWe6brluo4Bl1rPNL1Wmvnlw566GrvAMo35jFEoB4FzmACUbZUjlBBYBz5eks1HZUE+n7XUyAcA95h2BHLRaDMI9Gh6zFEwK4V3sEEfj/iKdCOkECg7A2cAoW3ZNp6PXRJaHEj6cMV01baUlKbzvOo9NJxW/ApMI5IZzg3cAo0frigFpcLqnefR5Yt5aPBGfo42tVr5HQ0uCXz1fOqGjmitppAkjME9Eu9HeX6DWnyN9SjXS0ujR0AngvYJY6rQN+e6rlAPqYItG20rwREl1I9Mr1D0viQCrqZFdFkS3nf2ysBUb7EbsZCYLnadIpbWZ4KNHOV15dOYfvzVwLxqq1xHhO21PoxroeO9tKgrRZk+/VaI2MNC7ICHWJFe2hlA4VToBw5goAZ5PVaY8aXtqicryYa4zHpDKYaQQVwS0HVO7KJmkC+6tI8OmhGnfsO39ZH2NCK+tdXGKjb9fS7J37bXur5+r6N8W09XZBhBIVKx6D1dV/H23oKDIYQ5lUnKoKShSi6rE+0n6w+2Dwg2JkBkBxlPbm7GhXo5Q0gnq83FCaBEGO5wRXx8HYg0M8ydtB7Wx9hPwvdVFlPONXATdfPJ4hX6pP14FSKC1An9H6+PrtgsC36+fqk+mnrwX4NOfWk6+m8Yavvw3q4fwNazd0/rbf3FaiG+p+7159C65tDdvsLn6+vej8ZcZ2huHG9/8L7L1sd39bjfk7zePMPAd7XMJ9EvboN9Pl6pw8V9ccQ31R/WGD/Fh4kYbEHBP238CABbBwJ9Mf+W/ybfQB9fndB3iIgGMA6n4vZAzy6XWAXKJQx+TABSTMNqFDMXi5cvqGzQNagbeiMorAZuXqJE4k8F3Dp/k3cMDw5RaBt1uOVQBRIOtGT2hE1HwqoqiaQXD40wZbjUFvLFcGQCUT5hoZJYDxz9Ye8lMw5dhfuAzJBsbncOm1S75WAUBYrZIEBmUC4nsFiKLns6JJAC9KEkk0gik+1W6JrLRrUDMZEOkNR3tJwErltM/lxPXRlHGICQfx85Wt1jJxB50r24Dy9ZRfE05iAbMkSHnyHoLHWcjDKS6f6+ja2s32xvgp7HDAYTtWLlWoTHaePZsl/BU0dW4/P9ey4h15oN3MFLeqK7fpElrYr8zDOJ3yxPl2x2kicjqrPHpbtwP6bsgiDGdqmxOAYnLwqZTwjmkDdqd65viAYqepMJ79XUf2fE6mirPoTQ8CYljTw24YIrTlac3K2GI98feBVKCBXrYUKewD0oztXOh94Yvkn7Ph7ru+YLQattIyK2W7Y0fdcnxEMBuWgzMAougalb8yAeb3EpUW5gsH4z6+ooH593ozUi/Xe4RL2Dc4hBnRYQfWtzX3Drz4/6HrWB8EqjYtQQR3QCkioD/Jetp70P2gxpnV0oFHrq4s2ZXucbj1hAvUnaz+4XkufY6PyV/6nuvvE9d2t7/C+0VVWz5D/aj8S4COyE1HJLbMXosGj6tuN/Uatjyz/wPfvAjYFMEcfWwAmQBA1uR+cYzkMuvw/sQEK+GbaZYAXAVLSn5nRfosCJot3FQFEuN7/rDeASeNdQfsaO5o87J8BqACsyYDMk/GJE9DgEE3c2dnLHEA0buILLHJEVG5sxv1VHiM+wmJ8JoGsRmlKnUmpi0YlQwXEUVs+Kdne4Ge2FDdWFSBcYwLKcrFiLyLACdAZLNQo1MoIhUwgeQHiuVywH0ytrujqbom48xVeiwpQPrYE5OG402YJZBWozEJ55bv5BgmxJkAhcPFcXQXQx1sW7b6hUVCbSlCaADIHU2tmJoBhamocHBWriiYgQNAECNg9ESib3ni5JW+i5Cod2TDO0szLa60qQGzGW4X80eLYHqTIvgRulM99w43XUAYhY4BeBpT0Wm+2pCZasMCyBOQM9c6AlEWoXBIIu/HgUb3Z8wlRvAyIaghBKdAbE/3DAhYfVJcaI1XXy2NhlwqfnvcdHcmNReM6AaTTTRHkDGMzwa8EgoOrlM4adEiCrwLmywZOqgDEyDbt6iCGyPAdHMCahYnioD2Gs2LHg3Pek+GSa9iYHR2lq2nMgTmDa9iYTNY3h3E5h3cNj2s9dQxofc/Wk05kd162A1eQtftHrd4tRA8KQR41OFIz4n16bzduOKkkyJPRQtDmtEUqI0ejGQbnkK6RcpHiuH9dz/ocXE87Q5GgOWTPN5zdnxzZnxzZ4/r/N45sOs6X/GHShpbFKROg212bj5w1JXVa9+9cA0jaTbH8A6G57W0e/A/1lSaXnyWENUkbeBbgxfuUeDTYvpIyAzNyx4+SGyu+wOdnF08bchuui3ZxcNTxpmVpQ0zEClTVH7sfuv/qMvaKAxD1SU2I8YYWReNuCXuBZ6To2ifWVNrO2B70n1Kypu/VK/rDrkVUs1/yh13xZI/oD7trGJu4frh4NzAxcUM6jTncqfhqDVdxV4NkSi1gP5cJSEtgvanSRqUaakUXFF0duCYccrPERztkJlOgWYmxcnMGl4uVxp1KRXFxKdxdUrQYXDI6xujK94U792LVckO5aQtqGjvy4NYmZ8yZOyIWUSztrpUr8l1T3JyZq+uuwZrjRxzqgNfIAAuIB145I+nSUJeRbilQyWlWTyWTSqIaq7WCgmxUyieyF/Owwi4aea60Ue4pUBHnp6wPF5mgXJmuGyZB5FJdfw2Tgc4cBvbq+9DDz5zOGzzdHrLKaSh7U7k6OXXU66bcMN0AHepEdu0XTN/mqFAwYSaUkyppYiSYNXXl6qGtl8AWUUPXhKMoHJ+3ujZl9HXZ9YsFRDq5q/cNOBC2em3183HWYG71fVuPSNmlxjxT7Wc3uP3Rz4YEnm1xsycBa1t+tiXwLExVcjTg+5b2ZD1lEq5f8mb90Hh/c96pqUFAf1KDeuiATGF17SmBZ8eSFlQjz+JlrYFFBIG16GxgRAxoqFVHZdFealMqlTPp6nrVucBWn8yC0SxVdfGCu0fq3O7sIb6A/q+fTNDZHArYzVNhPF4adf991/Sfr0+a2XS8n5ZcpRkz6TUfK6UKZAKeDOAGpHrWiK+gssgNxm4aLDI6bg5yRG4ZtuRWerzfmkNeCei4UEO+vEetDRpexl8SiG5yeuIPlnTX1nUTKHtWDn+xmjxUL4e+gSq9qKtL3Jq/SMWr77ox5u56eFLFOo0JPMlSSKBrpWbNwlH7/1BeYBkc3dJ0ac3c7O9zrsUVX9Z8HzWouQ7onJDdHlFH3jM3OQzHP2eekBxJCZ1ckUgYWVujMlfwhhufM2Q46JbKZswfiATi9Feb0vUbSkIoONwYcslYBRiOeTA0hmVgP0nWkNccQ7tTCo/6DzfqaQALH879KsWaVqffFDqJugeejKrxMyp7UrlFzQR03L9itWE6zFa5H2xm9yNEHd3MajF1g2EEM2bRjoLGOH4WpSrazTtUBSYGDajtdDqS3LABqfd0zniFemKN+7OyG82SDQW3ndH/+nE0IcoTpsvzZJQemHsyoOk6/3rlcdLgi+ENU8jnEgTq16a6ClDP8xLwPyLHAjqmx7/5Mafmzb0jeJgukTcBar+aruGxd/yxpjUY5s6A+jpdmabzz9TNJ3VTYl/++I/53QvYH95+O/Cnj58+ffvpwcf/198atH/69juF+fv/Ag==);lineShape=1;" vertex="1" parent="1">
                    <mxGeometry x="43.747386184788354" y="149.04419117873118" width="27.223659299505147" height="10.517856043284285" as="geometry"/>
                </mxCell>
                <mxCell id="8" value="" style="shape=stencil(nVhJcttADHyNrqjZl7Pj/MNVlmNVHMtlO9vv04yKkoBhmmZuFDXNAdANDDC7ePP2ePey3wX39v56/Lr/ebh/f9zFT7sQDs+P+9fDO5528XYXbx6Or/svr8fvz/en3y9308rp6dvxx/SFXydcKNLjhAru9+mNk1b/vvh8Wv90eNbrU1Xr8SLR9T6o9T6IiwSQpTUNwBu2Q5Wod4ALvhFAl+w0IEklPkdY7DWgiycmxSRFBylG8Y4AqiRtUjzHeRGQnKSsAV0iA2RrUvLSCA/ZS9U7pDSHYRlQpCQNKJTp4qTrsKYqLRBAmi0+A0Al26FJKgoAryLZoUYJXQMi1VJtUrVac6ZRasHKO1eqpVas+HKXRHxoTbL2oXia0t1JNYA0Z8gyIEjVJhXkIHG6Ix+00xUp2gkgS9JMgxmmpQVAlk6iBEDQGQcqWZkBIOp8aF5yoYCqM64hgYiWehl2KJTpXsUZALhnTCO/NHHgPjOn8T0DCHOglwFdgi7G4J4x7Z0Tp4no55z61xbObIFqzLwu899XgMziOpQ+ACpxAjyFZAGdaKOd5X8+5C5xWC40ScJgExN4QZgGmypJ0pLFewtIDIBSVizAETUBkHWSguqSacH3xQICoRp1KBuqq3RiUg2zi1eAynhog5iwJ5FrG4njAKSk22QSMqwNOzCnpyBuCit4bd0CGHFTgm2SRj8fIB8UX49zu/NBeaM0Wi3xBMJJbUrZao6WuVf4YBnAKVgGm1ihKWWhCrBSVqJtLFeKJXI0merKy/F2QLQn78oRAUDfdAihbJRNxxxKX9Q8rByk4MEU15WjGgDTlK00A2WYy1bajQkwNjSsuEJLY8vEAGiZdFinpowznbVaIXjWfqOzbTqsKOiJmISZw2niJu5JlHKwEwH06wgAE4bTUYKRrPRNg9bQ4DO1piBeRwkjBBupMSxGHSUMKUzeGD5NJctcS9HbsCIMLKdDk66dTk0cv0YwzTGGRXYEYUR3wzgaiEm+2+4EgXZEfL5YeWOkZjO4j7MQrob2TKThnW2/p2sBskNbuHcI5ADK9hBF1NhAPTRwwc1KWXbAymLlambwd+Xux227WxomB351hdrTzXJWKvycU5flieXM+PVADrU8E3NZ7ol00G7ZrzumNG8LKe9cwKMbvs/WNzvwcHsQTL/F3TCcHDyak/Kt/YwsCGsgl2nhP25JV9bj4XIl+3B4ejrd6F7/b69w8ep0/Rtv/wA=);lineShape=1;" vertex="1" parent="1">
                    <mxGeometry x="87.35380827492082" y="172.50032279308755" width="0.8097901851031436" height="12.465879964208268" as="geometry"/>
                </mxCell>
                <mxCell id="9" value="" style="shape=stencil(nVjbUttADP0av2pWe99nSv+DGULJlBImhF7+vnIzm0TacOz0zRid6H4keQp3788Pb5vJu/fDfvd982v7eHiewpfJ++3r82a/PcjTFO6ncPe022++7Xcfr4/Hv98eZsn56cfu5/wLv4+4zNTqjPLuz/GNo9L+vfh6lH/Zvmp51vKBcvhcvjgKrOTZkfMAUMl7DShU6+eA6qlkBRCTSgKAQjlpFxxl4HMTDU4DKjkGALE4KkBMxEADOwmKVpGYCojrqCIV8hEAAlUdpjn1wInaiLVJOfXAXQfEHpQToFJyAOB66XRAwcVXCqWiAZIa4HSJFLXT5zfXAVLeuvpKJocArtfaCSBGYg3BaGhYgyenNcxxKxCQDMBTRC3nKWuTJJUBA5IBZAog0wIIOg+1LgFiU4DmyINqLUOPStc6VEuemvZBOqShPETboq1SxVFy2unWyAOnc6aYLCCB8paWL4OGCjTETLVZAHI6RGoacEFVVxFCvsENKkCYOJCLFlAAIJEffIiAKp0lPpF3YKA4O4AkzwV4HHpzXcgHYI8MQI4WgMYJt97vJ4AkHngQuI/YC0AGaY7epnkBkGJ3caVJeRg/C04LsaZ6S1hL6AaszJsA2PiACyPXgWNw5WVH7bbSFmavFoCaRxaRW/uzdFpcSQGcyQ9hQiRTOmetZDFZQ4bfRzQ5rEoLPHyrPPciWDkYeCA8PHmYkl6TFkYb905cOTv5ynD20J6o/V2Y/my7YF4vgP3e1sO8v4A9Mtr4zwsSsCcPS2GBOx6ftv0TIHVyug4otkJlF/CAKGREhWFPzWiE+F6RF5twRgzfLEDICe14MVLVPsg2n0BVxGbLVO4FdIclGfw6rPNFAtgxJTs455sHFIZoYG2SnFUeOV36DXV5uAEqisOeKqchOsNCscuLD0ujuenuOVfXZ/sU61qa9wfU/kMt4Qtd5M2ygI8wPp1cZ3lU2xx72ZzlUaVytXwq9Ai6U/ilspFnFNBq1y/XD6zrGQt2xOIBG509gxfkk92MsD3SJGztQf5Km5Vb4pmaPYFxvoQWfJrW18N/fHFakJeH8+etp+3Ly/Hr2OX/7ecweXX8lBbu/wI=);lineShape=1;" vertex="1" parent="1">
                    <mxGeometry x="73.7717543405434" y="171.22155940540887" width="0.4315953287620817" height="13.562074703268557" as="geometry"/>
                </mxCell>
                <mxCell id="10" value="" style="shape=stencil(lVjbctpADP0av2p2V3t9TtP/yExIYUohQ0jb/H209bggGR+HN2N0vLoeHXvgh7ft0+tmCO7tfDr+3PzZPZ+3A38bQtgdtpvT7ixXAz8O/PByPG1+nI7vh+fx9+tTt+xXv46/+xP+jrhYqOWOCu5jvOOo1n83vo/2+93hyj55qkXZFyoZ2FfKSdn7TCkuAzKTYwUIcqcBgDjgFIAd5bAMKIFS0IBKBZxQCkXtUsxUAaAG4qYAKVIELlX5W2c1e/IgrTURa5dypgLqJoBcdd1WT6g6SyVSQoBCwQDK5ORtQCPWrVEaZb8MaJ6irnT1U1S3AUwcNYBhDC1S02mVNEQEyBTMCRJ0AYBiCydpCCiGak+QNAQHAU03n6TBg+bzzpHTeZVnZBREJa8r1xqc0RamAbsCRNSuMhAzQAEuSXP6YAEtAdoQlwwxXfKwRH1p5lMD/Rr9jahRv3K0vCEABu0nTOc1e/fqA0BoE/leARJoDg6UZ73hQdAsnWAKUaZM385SnVWuTMVfWiktWQCDE4qbpRUDhFbCXS41OeGuoIU3yqwOKK29/ZsFoMIJwBcLQK3Ruc+4hJtPmC6xBWS8R23QeIBkpyUdw+qMpokbv0gDMVKdBYGIhvONqBGVsezZagGILGVGzYpYoeO7AUIbZi+urIgeg0krXkJCG2alrKw5/i/yvrhIhSutGMCrmpPdiytigEUa66HucgMUTqjPqIcVQRMlS14DsGSKTMGobyzKBODukn3iUtat0YUlCFqWXJ5LV1RpGRd9QhfHqA6RguZ7kd8NZEnmwbxCiMCvCMCWXPsrBHDJV7tG5REevNV4tlq3vwahJUfRaGOqoJNmCs5NvbtgnpIxL+DpYarPxTwhEp5evy7mjDYVVeuMB4PvZU/ZWB2SPG6i5yt7FKxIehstWjnCjc1be7BxhFa89R+1jgxYsulETBpn7zAOjlcsVn/h3r/3i8G6vVxcPk+87Pb78evG9f/2c4bcGj+F8OMn);lineShape=1;" vertex="1" parent="1">
                    <mxGeometry x="62.12079595907602" y="173.0498293879363" width="0.44944240052774104" height="11.912256477414736" as="geometry"/>
                </mxCell>
                <mxCell id="11" value="&lt;font style=&quot;font-size: 6px;&quot;&gt;index:3&lt;/font&gt;" style="text;html=1;align=center;verticalAlign=middle;resizable=0;points=[];autosize=1;strokeColor=none;fillColor=none;" vertex="1" parent="1">
                    <mxGeometry x="53.99" y="184.97" width="40" height="30" as="geometry"/>
                </mxCell>
                <mxCell id="12" value="&lt;font style=&quot;font-size: 6px;&quot;&gt;index:1&lt;/font&gt;" style="text;html=1;align=center;verticalAlign=middle;resizable=0;points=[];autosize=1;strokeColor=none;fillColor=none;" vertex="1" parent="1">
                    <mxGeometry x="70.97" y="171.22" width="40" height="30" as="geometry"/>
                </mxCell>
                <mxCell id="13" value="&lt;font style=&quot;font-size: 6px;&quot;&gt;index:5&lt;/font&gt;" style="text;html=1;align=center;verticalAlign=middle;resizable=0;points=[];autosize=1;strokeColor=none;fillColor=none;" vertex="1" parent="1">
                    <mxGeometry x="42.349999999999994" y="173.05" width="40" height="30" as="geometry"/>
                </mxCell>
                <mxCell id="14" value="" style="shape=stencil(lVrbblw3DPyafSV0F/Wcpv8RIE5t1I0Dx+nl70thIXk1OjsHflvbGksUyeFQ3Ev89PPxy4+HS3A/315f/nz45+nr2+Ml/nYJ4en748Pr05t9usTPl/jp28vrwx+vL7++f73+/ONLX9k//fXyd/8P/15x0UlrHRXcf9ffzF/8fl3//PT9Zn1QXB8kRbK+SCvL+ig5kfVJwvr/kzQl6734tKwvEsl6r1Lisr5KDWR9Eb+ep0kg5/dJ3Gqvd9QAH9Fg76WxHYLkugKCNOIC+38KgMh38GizWdUyAZiJfgVkaY4Cqq4Ac8PJkQDQJHl6S2U12gJbGSCLW3ewyPYsMnQE2gREiYWEahAHqZNEGWCG/gQUSQxQRWGHKq3eB0Qvbs0eC+9EPB2T1Lym83TlMaCh42KQQEIjWT6EFRClEEZKVTwwjLmS2JC9VLcCjDOIp3MZkTMBVQrxQ/Eb6dk1ED+UMkycrGfRSmwoigmUzCpypGpuWvMhzQw5BhivAyAO6jwGFIyllCUSx9U6SGUCOHfXNtJlAioFqN+MVnokjYNUJqDRjFPL4NXo7CST8FbL4NVxFo6J+EFV3Bqt2QoAiVZtUmCHSI/U/PjzBCRJZIcWsebmTP3QkhTYoVA/tDxoawKqJGZDlQBGqyS2g0pYdUC2eyMZZwAg42IpxXZoEtdY6rTAbqmNW58Au2iScW3G5gSYeiKx1AErzRRzHCm7BshwJHMc3wHESbEU5TZAaBi1MTLuADhSO91hjVbjwhOjy8pL1UtkobEDwtktldVxNfIEaqhmauL5sAMy1UsGgKJofM7UTAfADkoLuwF0zTh14viRdM0443Mm4QzQ1tAwPi88ltoaGpo58zUs7FoHj9wFgA1N3AkA+g03SswdKe2wQLQwIv5ubKyOMH5mRc7IFWijlSHSjgFWA9eE6GTIityWo+9Ze68qhooAJpis7gLP9JtmR0pbi/J+0/fEg/PbFqxS++1e25DXxwA3eOgGwEq7Kaa63WsgKVQ3GrC6p0wxOQkZAZkB/KD3GwCjYw2ovg3guSbD6DMNxVxdsJPrAKYrFXvFfiRm9FZ4GxeilkFQ2g1A5YnD1q8LFpbUpl6ABRoXDzvPWPAxPyhWiB7e7JYq9orvBH0MmA3GB3I071swI7ZWrhMNySBLiLLtwBKibmXuXTneA5SNBajRu+eUttQfBxSUfabgWTtqsZG3GsSMNgDU9pMq1wGwAy+kHQBigJfqDlj9cCIGOmC9pRO5oQ39cCJoOgBs4JKpA0CfcFFmAA9al8s+A4TVcSfCsgNgBy5dDwBcHHfAh+T3AYALfG0oT05aiA5Y/XDSpHQAtHK8DdK9HdVTALys81auA6BD5u85HfChdlSnirxteE8cBztE+hDXw3uN1hK4dtBR0m66fErGFTuC3Mbr+T0ATBSy0mdjI5W6ejpXTgJpJOTN84wyT/sxw7l5AGJG163Lz0kcIbJaR/m4efViddpIBTydPR1k1YQKKzs6RjGOcGtBSVyd1O1dLSl9ACqbSkyVA7bGzADMD5ZfUHZToW/lli5Q2FOmb1LFjfy6eTZmVGnBDAUlBdrTWOTA62NytEVJ22tL5EOOlMZIcwJ0jG4OAXGrcbGMPuoYkLYRRB4l5hjg8D0nRlGSQKEgL8VAq2gImEB9NMyGfoq3FE5Gcnm0nhPAeWmfdJpVtEVBjdgHbMRvRTwcKI7X+WMvIBMHzjFzhjPXOypMNtndp9WEYRwWK19og+VQxphLmAO2Zxyf+JR2mxtHPlzH+zGPVxajWHa8p21JxKcG7+jMK2Prpvw5Bsm08oGxx8f0zG/TmBbqB2VSvzFppP1LDzdIr7Hh8XqPQ0pHo7PPuwusp9PrgNfvBiUdr494n46+C9n1besdW59x0sBbo065Fdez+9ym9W50b8frtxbY0VJsdKgO75PN9h2OJh3l814f8DyFFT2P33/gA7SPfjXpfL19eP8e1Len5+fr16hu/47fm7JfXb9zFT//Dw==);lineShape=1;fontSize=6;" vertex="1" parent="1">
                    <mxGeometry x="73.75157352063891" y="184.00217211573317" width="2.3044235233516055" height="13.381897110112165" as="geometry"/>
                </mxCell>
                <mxCell id="15" value="&lt;pre style=&quot;border-width: 0px 0px 0px 2px; border-style: solid; border-color: var(--border-tertiary); border-image: initial; box-sizing: border-box; overflow-wrap: break-word; --tw-border-spacing-x: 0; --tw-border-spacing-y: 0; --tw-translate-x: 0; --tw-translate-y: 0; --tw-rotate: 0; --tw-skew-x: 0; --tw-skew-y: 0; --tw-scale-x: 1; --tw-scale-y: 1; --tw-pan-x: ; --tw-pan-y: ; --tw-pinch-zoom: ; --tw-scroll-snap-strictness: proximity; --tw-gradient-from-position: ; --tw-gradient-via-position: ; --tw-gradient-to-position: ; --tw-ordinal: ; --tw-slashed-zero: ; --tw-numeric-figure: ; --tw-numeric-spacing: ; --tw-numeric-fraction: ; --tw-ring-inset: ; --tw-ring-offset-width: 0px; --tw-ring-offset-color: #fff; --tw-ring-color: #3b82f680; --tw-ring-offset-shadow: 0 0 #0000; --tw-ring-shadow: 0 0 #0000; --tw-shadow: 0 0 #0000; --tw-shadow-colored: 0 0 #0000; --tw-blur: ; --tw-brightness: ; --tw-contrast: ; --tw-grayscale: ; --tw-hue-rotate: ; --tw-invert: ; --tw-saturate: ; --tw-sepia: ; --tw-drop-shadow: ; --tw-backdrop-blur: ; --tw-backdrop-brightness: ; --tw-backdrop-contrast: ; --tw-backdrop-grayscale: ; --tw-backdrop-hue-rotate: ; --tw-backdrop-invert: ; --tw-backdrop-opacity: ; --tw-backdrop-saturate: ; --tw-backdrop-sepia: ; font-family: Menlo, sans-serif; font-size: 14px; margin: 1rem 0px; overflow: visible; color: var(--text-secondary); line-height: 1.25rem; padding-left: 1rem; font-style: normal; font-variant-ligatures: normal; font-variant-caps: normal; font-weight: 400; letter-spacing: normal; orphans: 2; text-align: start; text-indent: 0px; text-transform: none; widows: 2; word-spacing: 0px; -webkit-text-stroke-width: 0px; background-color: rgb(15, 15, 15); text-decoration-thickness: initial; text-decoration-style: initial; text-decoration-color: initial;&quot;&gt;[1,6,1,5,1,4]&lt;/pre&gt;" style="text;whiteSpace=wrap;html=1;fontSize=6;" vertex="1" parent="1">
                    <mxGeometry x="5" y="201.22" width="130" height="80" as="geometry"/>
                </mxCell>
                <mxCell id="16" value="" style="shape=stencil(lVhJchsxDHyNriiCO8+O8w9XWY5VcSyX7Gy/T09UHImYUVu6aUHPgECjAXAT7t6fH962G+/ePw7779vfu8eP5034svF+9/q8Pew+8GkT7jfh7ml/2H477H++Ph6/vz1MltOnH/tf0xP+HHHaRNOE8u7v8RcfJLj/v3w9Al52r+eALMkPgODEKQEEaXUEFCmJAFRyHAAxSWAAJ74NgOQlNgpwbgBkPMJTQC0joEhkLnkJo0slilYCSBJ1BCAz+TLAO9ERUL1Ucmif7BlqlhgvA4KXNkapVknkDdFJMW9o/RHrgCo1DIDmJJTLgFQkZPuGQMKaozTjEh5BMl28+NGlGqlLpfS/Z4B2dq0C8Hc11EBJES7VtOCSiicu1ZmbM1uTKHOpShsrDoF2hHwAxPHQCQVE8gCq2ZqONA81dI2YVaNJIjKDcjFnCEkKcakkcUaXkBkSpdyszPhMVQPks9rqqEsJbxjpDbVVQo0UbAEpVz6UaBrP0HqBrGtAlZKNfSZHhrSrKVApxB/kqI0hKpII8WDvDbUpUWFvUhCpbsM+m5RRUQ1ZyqiRSmsZ8dQx/kgIiz/Sk409O29US4hP7INkd4M/6MSu3XDeCP7GG+IZlzpBexTs02jP+QD/6y18g0oZfzifEU832vN6Qb68Gntaj61PQid7Wl/F8hlTBavf3Ie/03nZcId6id7EPxGFm+pxtI99Orzy+aE3wyv9115AV8bHdYJcGX+MYaxeFvl1dDi41R4txjQxzHSs6TnJpn71sy6ZxxcoJD5cBlTXBWGueN8179J4Y1oAzlAJ55paDqFxF+JSwxlGEYUMO1IFrfaiPd9ACEDdYqNAa86EGA1EMsLlaSLgk9m7sIJ4fuowZg5zpmMAZ9+AjaKxVEcrvtOCwGY0TJVGjaCXJEoZg+noUst09MUEZUZfxK0wQBRvBBuKTc6AnaU1C2AShpYQxpI+Y8u6yES7g0yEJK+AiJZmwxSI7GHbbKbteBrXZud97Bhs3g+9IGd710fbdYc6DWau+l4fq/ZuIXt8S1uWZ6J9ykkc/U9K5wpv99LTILBOOzsWTY2O7YC2LWBuKeT56nohnq0ejd+hmEFzihm7Q1nc0mjjtzRekmnNvDQ1rABY89fYc3oG8Ey2U9focwC7pcG4rxbA5kc0y2WUHItStfdAABR2hmpvOKYRnqi2LtdYpTO2Lmaeie4sSjffKX4OwIfTFebT7uXleAN6/r+98sRPx+vScP8P);lineShape=1;fontSize=6;" vertex="1" parent="1">
                    <mxGeometry x="32.082921963237766" y="219.92407176034794" width="3.0656650976639686" height="3.5503448762441985" as="geometry"/>
                </mxCell>
                <mxCell id="17" value="" style="shape=stencil(rVfbbtswDP0avxKSSN2eu+4/CjRdjGVJkWZb+/ejZyiNGOd4AfZmyzoWL+eQ1MAPb9un180Q3NvpePi++T0+n7YDfxlCGPfbzXE86dPAjwM/vByOm2/Hw8/98/z++jTtnJ5+HH5Nf3ifcZIplQkV3Me8wlT478LXef9u3F/uT5Rct9974gQAmWrqAMHR9HoTUMn5HlCoZghg7l1gShECYm8SFxLkQ6UsHUC4nXkLUPqoSllzutYOEJk8AERPJfeATBk4HYVi6AApUESATLHPQ8ok7jYgFXK9Dzm23C8CaiXpAVUogUwrIBtAIu8BIBP3UdKVCHyogcQAShPIIqBESn1Y1cgIqJFz+3wBQPROqge5AggAeHLJAgRTQ5x1Oq7oodiwMjBpqjLGJKUGkqjKxZwgMHGqh2gAKiAQVqW3N1wKjb/LYZUmlzPAN3YtZzpYiSoAnVD8ldO6Ak4oWhi9BVREb7HFWJ2uSEDlSnFCAZzgnSNnyKQSAYLQI6zkMjnADbWATSIKMaiVGiZn4lopoEQ4Ym8BBaVaq3Ef14s4LLNJW9TVEQloLiaSYL0uwAlVhIs2rhn1UQ2TScT5zP8DCNLo3AAlwMz50sh2bimZCig0PthSlhk23mxnh3SuPMs+k5imyNgDKr09UbkKeHGlnpU5wLX+94+Dhs5ePSlWJhlHYmYrPCo5W+hXZjFHtZfmyrCnNbq3Z2WaVO/6+rUyrgarfDwOh2bs2RxYTsXW69B6+3IdspMwbgdKfkMGB0uKT60Hf+5HsVRrQzL7UY1TcWW+Y79SxUw6K7nNdsrG/oq3ZMPxlGj7Bk6XTjkuDHew4d671+p+ffi86L2Mu918T7z8bi+GujRfKvnxDw==);lineShape=1;fontSize=6;" vertex="1" parent="1">
                    <mxGeometry x="42.37181381229303" y="219.0386501987898" width="0.5992867920109529" height="3.5200215037756424" as="geometry"/>
                </mxCell>
                <mxCell id="19" value="" style="shape=stencil(lVlJchsxDHyNrijuIM5Z/uGqKLEqju2yne33wUQhLYKcjnyTNGiRABoNkHOI755vbx6Ph+CeX54evh5/nj693B7i+0MIp/vb49PpRT8d4odDfPf54en45enh+/2n8/fHm81y+/Tt4cf2D7/OOB+I/YYK7ve/X4jd3x8+nu3vTvcX9vrY58HeEQdgXyhVYx/Svn30VLyxd2A/yVNgY1943z478mmwjxQ9sGeq4/4LlbpvXxLxGB+vDud9ADuqZQRECsBjZsqjx760v1gCqqZYBkAIFEEOaqY4+hAqVeBDTZTGFWKhCHzQLYnJgpAIcLraNKTSiLsGRMphAGQNKwI460NWH0BYC1MafchCCUSpRJvpEiBXi1IjjoBMjMjN5M0KQh7kQWNiqpMDBeB0ErsCd7KsAYnKGFZNpQOCocyRMXFKlgScDmIrrhbotFa8KaAqFOI+wAu5cQUJGKB5dSMgU0YVR26MqmiRI7K25bt9JAdipJJSxyyIb6KwjlFqxXIBEOCyZsHotsYICXfMi6A6xCTXNOgC4MGWVCFqsACkrDlQdhMApC3PeQutHe1JgKHeBgB5KCvqoX7FiXKcACBKykw3JQ6tIGWR6QzCKhqlUSg3toKwitgZQzp/9wBGKCW1BrOuB9enio7AoqFLFLMnhtxQry37KgZoyYsFoJ6oO3YGoA0ISKsGJfEEAMOMJtZo8ZYawG8ViVytDxltyU1K2cOwB7BOl9a4rwVox3rbllQMEWB2OsKiXoRVGwaixpy4/xT1TA0FoC3N5AuNv9fSO7YwXFtACQJWNZrhzLfJgNmTtgBE11loGHa5TcqM0FQ4kS3EUjD7ZjkWOAq8GbDoEAIraNGDBAr+ossJVIFFHxU4Ly06tbQ1r50F+sBy7bQhbZLdnWeSBTAYpbeJafIBldxiJpN2KlpXkPaPCSBgxNrGxJEaF0W4TkRz8XIFkDg3MYPhjmYJCO3UtU5bO2tfjPaCqqc1zG7P8DrDJ5u02g/866Q5S7yq7QLRgqcjWYXlGbU5mCNZgrN90rF53JKefdFxJuUWk36s5Cbmu6fEMc0lwa6ee3fqAA/rOU9byhXOlPq4jlvSv/Ag07oBHvOgm3To5oetAKjooLM0+/Z/HaDlga6KYus1/dYkQ6c52a4ecTnrCuZ4rxVeATWUOaarBx1lAKDkdkfSJUYwNeriusuBsG69wYhYgFd2Sm8rxJSAC7E/7vVDHhWonpxNNcARQCPIztjDQSnZ6zqGmqcqH521BwH1/Uro1R5xwvs2/b7ao+7vnaUEw4sAsdeZpQngjrmJToZtebrgyvC6SmxPTvC2V+ytZGxk3QuNGYwCHGjVvjpjj84J3luq4Vuet74t+L+9fnh9NfH5dHd3frNx+dy+ytCfzq9B4oc/);lineShape=1;fontSize=6;" vertex="1" parent="1">
                    <mxGeometry x="53.46060671213094" y="219.42388064761695" width="3.1582644503630037" height="4.383544946922229" as="geometry"/>
                </mxCell>
                <mxCell id="20" value="" style="shape=stencil(lVnZUhwxDPyafVX5lv1MyH9QxRK2QoACcv19NNnyMG4zDbwti2TraqnlPcSL59urx+MhuOeXp4fvx9+n65fbQ/xyCOF0f3t8Or3Yp0O8PMSLm4en47enh5/31+e/H68WyeXTj4dfywl/znpRNC5Kwf09fxGklf9ffD2L353uN+Lei6ZBPopj8g3Pj+LDvnzIEgKe7/blo5fm0H4l8k1cRfm6L5+KJEV7/L58jhKm8xuRb5IDysd9+WLxaSCfyfnqRPF8n4h8ETfKeynEnuqkeZB3xJ5q/o7xdDS/rUp1KE/y6916XldIkkiCWxE/BrSKy9SBOjpgkMjEoholjhXh7UpSQtqkjBAzELGa0ywKNREkEJPU/p1HBTuCZKFU0THLoUnkZVrGG2LoQH1bIfayWRUK9aE4BEIKkkgnshsAyYZtz0xqEsbWlVTqO9gpo4JVLwNDEj9GKfvent4uVkMbKCTJpDSsutNokjWcwPGWxhtK6AW/p9DGsBYVzxRU4ghQTTTTLSNCVaWRPBhEYSYsgWYQtUIYo2TfsGo1iOaxNJqnbcwQV0cAtSSVASiJjiZZ3CopjWyZhsbteGuNCTulRVrJFTH2zrhxopDqM8wXuMHGI8GoKUCfsbhWpmDNFcLkJDMFmwbQ7lv/5m2FjPVdK4+SYuszBXpDQx9MoRAf0jRzzQcWVuuM0GcsSoFUnym0hHlgUzTF3lVWBd42lhsmQAQyd00BBoRVKzXJdYCtCgYR0jbiGsQN5BzhqpbpnFHBs+LLHcIbk9hEWarVowLjDgsePEbJkUwvEIWwxs4YdxXghiCRKUyTfZlijKKnzvA25V2Z07nndQMgeoPiEmAKmeVhYqGLAqtWh924cg6XfG8qW6cZgD6rkLVP2U0elDGshIkzp9nMsl3DQV8qdBkwwuTBh7VTvT2oPRafWqtkkz33abAhG2xfrYr7ktFAlmmLCThd+MJhXAS4Q/ESGa1sfUNdOVylQ1ET0vvMKdnC1sdM50zDagZAX7K91zN24jsR3nJpElZTQPLtaJRywCXIFohI6I+5CCMrBjqBzGlYjW1VLGyBWPO6KiS6TFvlwNi1bVcJgJa9DJZRI66kGS88dAyr54zMIAqMzDsOUet84w3a9989wAEzDrS4W8Qly9OpbgMzjnWxLvx7Kxa0euUNw/c6fpVnhW0BhQxUSsXU3IPRw4suYwOrtCLmB6gmntgzP3A1+iAzP6A1+r4yP9Dx8+cHwEZnzvzAyO2ZHzArfaCbH0gb38Lw+HfMn0gtpRUeR0ft1u2IByBSlNo5fKhSSigcRl7pU/D0kFc6Ej4mnukSNRmT6JvC5Grqz08fC+Sa5o+laaXxHyuCyCH1uSf+d8Xtw+uvCTenu7vzjxHb/+OvD/bV+ZeLePkP);lineShape=1;fontSize=6;" vertex="1" parent="1">
                    <mxGeometry x="63.28797079139011" y="219.85114133477413" width="3.3059350215949235" height="4.048743896493579" as="geometry"/>
                </mxCell>
                <mxCell id="21" value="" style="shape=stencil(lVnZchs5DPwavaJIgudzjv9wVZxYFcdOOU6y+/fbXIWTIahpJW+yPC0CRKNxzEnffHu4+3p/Cu7b68vz5/uf5w+vDyd9ewrh/PRw/3J+xaeTvjvpm4/PL/efXp6/P324/P31rj/ZP315/tF/4Z8LLqu40FHB/Xv5phVp7v9v3l8Aj+enPcBLajPAi8sE4ETrBKhZUjoGpCYhzwAv2RNAleAnQMnjJ64DisQyA5xkZlKWOgNyEhcpQHUCwKuoBJCkznFIKpUDwhyHWCVWCnDzLUUVZbcUpaYJoDiB3VKUMjut8IGZFCXHCRBwS9ykNMchJPGErR0wOx2cFH6Cn03yRTyLQ5A6s9WDS8xpN4iwkU9COH4+LmGokonLEek4/75HyhKAwsGZST5RrmoYBm+AJo1kQ8jj31sU4BQxKcDi+VIVKkIAvlomgXqRAdKQlA2Qadh8kDbLmMJpokqgwS8Xd/nGuAoVmw9AQjdCVSTj7AGoWJjLCNtsUE9Yks9gvmESNMQTlxHVnOwJTLmR7vaESJUbUTX5nLjEQLI0WUAiJnVRXE7whNyIkoYlDoUIgNoKCkAmCoD6ZnQVgEROQFFPi0ms5OYqviwA4nQJQ0X3AKIZZeVSoHFoW4HdAJ7qZEPJLRbgyS2h0bFs9RIbAdSRLjsfGDVaG7e+45IjcQCgmWuNtPp0gDkBfQFzui0JlEeGHDmdDVtRrxigSKoWwFK0B87oUuWBi9LKAiDK13RJIMSenRAWAEoYI18Ycd3FgZVENM3F3FKk/R4AzZikVO5hUjLXGrjTahsT5ENlkY62hgKg7JbS4gNSlHMpLCKg7FrXoggfWE63a+rNfGh2FOhxICXLOyduqbs3bCoGkMdPHAHsCXmkyNG9tiVHKZmyFBOISluBvwb0AmEAjXZwZauyO4ASnUGRs/3PDcBaqLlJcNFyAwA2JuqSEG10vtebjTbyZQdgzQamBwPAPM7kG12tae4BKMQHjcPFDcALNZo+4zQArPXGjGfG9Rx4H4oRqFkAG4F8Htq7AxSixn4zYH8CcbqKq9ZnNkuv5QFTGiHGqjFKtduNLmEbNgqVGD9mzv3ygIRAR0e7m5Zoy2ojpolqZB1Lqu35wAdEb1MzbMl6HRDtXA8asoYV01KeORQCH350RPQPVw2w2AJ4D407ifOt1tEjH20CbNToiAsOtPl5N5rF63Ln7QrKUdL1KmaiPMr70arRbDL40g3PG/v9tg49Wn6GWU19puLYs9zQju+fOsAsrNJIjSOAGXADrzndB5NqkIobgGUPyBaHHWA2GUrFqzs9pw6GajYn5WvNMGVGGHvFXd1k1Ot7cSPwkVZmAEwzXBzfi0fbeZZEu4uc7GaiOtrQ57ws0hMtUrnYRXq74UOzso2+r7ITmpUwtKJs49tPmLsLtPg0H5YhvU+wvC004yfaac9OKHY47EM1B5jh8PcQcRQ4Q43dEHHEDbMY75sB5vVS3rpN7IS4cKPR9w09IRaT2DsTAAxdETlW3v7+3dVtAD78flX28fz4eHnTtv+/fbWGry6v5fTdfw==);lineShape=1;fontSize=6;" vertex="1" parent="1">
                    <mxGeometry x="75.797244020737" y="219.29438029673065" width="3.8044473544626634" height="4.451102967200532" as="geometry"/>
                </mxCell>
                <mxCell id="22" value="" style="shape=stencil(lVjbUhsxDP2avGp8kyw/0/Y/mCGUTClhAr39fbVNbWJt9jC8hUXHlo7u3uWbl4fb5/0uhZfX0/Hb/tfh7vVhlz/tUjo8PexPh1f7tcufd/nm/njafz0dfzzdnf9+vl0kl1/fjz+XE36fcSLEZUGl8Of8hamlfx++nOUfD08X8qyUwiQvJALkA4U6ydsB4PwSqeZJvlHL2/I5UeZJPkZicEHKK0CiCgBRusIDUCgDk5fzdAZUkgIATCFOAFMyIICSzKQaqwWwlEyl2Ws5UwU3pEp5VinXHihbfuDZ6GKeVwBQ72hzfWIQGZW0egCDGyxUa/OA/zRcBdTgY7uYVW0boIGqzIBCBajUQvfrAChloFLLxPMNHCkATzehODuOC6UIAI3izJIEKkil5o2WTA04LgazeubVmBasU5t1qpUiuMIAPCe1ZpjUzYJpTmptpIjX1MviqEtMGSSEDlIGoEEb6kqlhYYKAJF0ZumC6asI4Z70F1cUoBObBrOvm0JeLdiis7pCV5fsi6XxGkHOWd0ojqZMggp+62VlACIVVF1HJFzEBqI1+RZqvmeUEBRd7Fl5BhwFb4BGEnD+Kt2sTqGqZP+dS0ZtlEEuDPqGvPZuscFPmwt3xb2kkLKXDyAkxDeGRR7oo6TFyyP9YyDOHtDQBBB9UBtDCjxgI0Nh74IGTF4A8w0WExEUC1NJ50y2oEvohtBj7CKqEyp41NTLN8Bq7X1syBd4Pq+iuuBCQTF4fSpi6EoWB1BXLGuqJxTLuyHPslKBPqthxEICTS/R82kxJ2gmXGV97Y19Iyvjqicn1GxW8gJDerVYLD0f+WtF6GIATuOPAaxzuCHYQgJRar3JVSJlOFXY9MeuFdgXQKrNtG68s5FSUG00E133S5DWyj4PDCCgdlnYy+xo668RlV/2KqnCSFILtFVpQTYYQFYF+x2A84NNqGjOMYCfmgteFbivsWMubyTIaDNxNpqZEoglKw9ptoETnFBr8hXMlvUMWLI53zX+0rqS16PVKujsaQt41DiXjU48QAFLmfuucgEoKKeLH5oL415efcaZkorGx9hZH6uz9EV0qxHONucIG1vyy5G1xoTHO/fgoXB8zD60bdhAi7kZ7GZ+heOXKZTnyJbeqrfKcHMegI3EqrCblzPkv1hfmh2W4E7OqyezQA01wuLnzQBXeJH+cHIhj86vXd03+QgCVMZb0Zs8WgLF2mD7gL11XD8CqBeaLXnx/CP9TV69vKLFOvitdzyqbMlnV4Rg/Evzj2ulz9pb/Ossz/A9cWnhrnXA3vTRJ9335e3H2/vx/eHx8fz8fPl//95sn85v1fnzXw==);lineShape=1;fontSize=6;" vertex="1" parent="1">
                    <mxGeometry x="87.26916712003535" y="219.64767543026488" width="2.7298920544350405" height="4.712939315097392" as="geometry"/>
                </mxCell>
                <mxCell id="23" value="" style="shape=stencil(lZzZkhy3EUW/Zl4R2JdnWf4PRYgyGaZFBUVvf++EGdXTdbP6lPRGTuN2Acjt5lL9Vn74/eNPv314y/H3b1+//P3Dvz/9/O3jW/nLW86ffv344eunb/avt/LjW/nhly9fP/zt65d//vrz9///9tNeuf/1jy//2t/wn++4GGbfoBz/e/whxv//4a/fl3/+9OvT8hra0OXp9fIZVpblab1ennIoUdZX+PrUQ9Hdd/h++3idt59CnLC+H5fxvr7D7ZQUcjmtzyFXWN9DzbJ+wX5qCnWd1pcw4Ly16/qK+292Hef7aaHC/lsLpZ3W90OA1+tXKOf9jJDG6/XdrqOe1s8QYT/d5JVl/Syw3j4+73+FDvc/ksorxdDgwMPkk86AdKjsNaDpjswmcgbACOuscqmEBGceK4x5BtTj1q5tOIVWFLDg0LMcO34A7FTkJerx8QPQQ28A6IfaPADj2OQ1YIQqhjxRU+dUy0krRBDcNNUuCiDbXOYKxfbN2cETDLDOZ7jxXssEtxQw4FpXVsGZP6qgGgaY8gRTPpD0Kof/eQIsekLViGAubNAttRDPBmQ+bNITmkZAc0qRbsl086yt5mUqKN8aqhrmZiadYeoZLLAU2tIM/WwPxSQDjnWtw0c8ADVUesIK7eyJS0eiYACx6TIO5/8KII6szDBIcEuDeXn85SVAomEKCeSQYtT4XzMLYqmN1hIaA8ZZ1PVGv1eo51NbkEcvYH7rfK91HCTulTKJv6/rcFWv9Huc77VFNrl+ROUHIIdBytRCO8esVjFAbLdx1r7WD2f4ypMJU22TvbFRgfOWegyZXF9Uk+sJJW0hSCyoF1RXC3L9fIZekWxYGNUzNFTv2UI/ewFjXIkAVcmGAcj1GXdYcuiBBmQAoQJG6hLYwzQLzgogbTX+I7rUF/rKGR3LjYcNvqJkLSmgA88dUwVnzLQwSxT+MzImbqProQ2A1Lhp6mDct4CbsY8lZo2Kcdc2IMmeAQadIWpEsU1SCHqX6wPQUXCmmzMroBOghyxyGEjvzYIl4xgDtdVSJmEnW1nglsxticWZOlJkN8coYdQApK3meudZW7eFwBnMuY/zLZkNkmpY+MhdARMAFtH6WTXMLQwQnMXMKJloQUlbGC8CqOjIjIuI4MzbNhCc0SMhrtufg281xib0fjIlK0UTCItJGc6waaocemHCnl3WZACSg3HzegZYXC30BKP3VQELrtXyi3Q+9A719ISsNTEDEA/dVaizHIx9VPCtyfmlTVeojjbCOquGJV6VAOa2HACf4Co/RrnwCUVTRQMsIt9ZaaixQGIzyRGsndpRcUbp0qaZFB5Uue0ElE53d4CC64eWHEzKAxTv4def9G7C+nWwx2dLoLzVSYxrwyYAuVAz5gQbSsn5+YmBwXRCymlzYJHF1DQ5AFWIzRDkkibnAfYEsU07NAKqspLF7NAAZSiAkh8zNSHdphiFnlCO0taT5uGWsrLDlZGKmaSbuIuCmYbpklR+t0MiXYpaejfrbJTAOWtrWIueR7L2tH7gerW2zhRd0/T3stErbyT7n5iKDRelJqfQRwHpaT3V0k3EQqk2gCPCcE8gf2SmtpoDkKlNF6QmRrUdmUVoC2vjuRx3+AwgsuD8y+K6sumRVExvAMXx+TtA0WrjHaBp5XoDiBZ2Jzi+pZquDg1yqFkLdXdPcMnkLomCBzOAlD4MkHlL08mBXN4GuFui5pIB1CVxImYA9cILfZgBsgNQXdkEp15jYX1/dzTdGcgJVNeiXAvdTI0HiXoGkKSjiwwLOYMBvC5hqncFqCTpqy1lMNHLQ1N0uLxWcgJbcB7AkvaqQSTjUvkiySEfAf/50NROvzKgwk7AmyiVAi+dAHXgL90MFiauHBllAZeukhLiS2d8Y6J/DnAZH2hLlxGIWtKXMY68xmUUJcBlnEbAFRNAwBXXwEpGvLpWIljTZbiLCVZzlYyFAyyb80kfPt4klY/iyx9FLJeb8CF82r2wdugmNNbCSmC5Yq24Xh3rQN2uWkKzRIPUoh2k4imRof08Ojx/sA7TtSy5uKM5nNeu3ObSKqZlho0aPk5eGTPJ5co2mbPneASZp3S7c6FKw07CZozZgJS3d9GTAcPVYTvwtj1kFBVAXWUz5OpKNzSBY64iJgVQz3dPJS3dUiZAUcOfHBSSL9zGo3Ly6lqnmE7CEYXko8hNo9v508Jta2f7NWRcL90kW098fh/AVW0pxfATnHtHrEga1crRLnpZP1sKIPKc+kX1HJ/gq+eZn7B0PGFXYmmu1M2J7h4DhXI3nvA+DXYNqG5LEUe5smv4Tk71th92rRvSPaNU2qSbHDizzhzNgdS2+GpvRzpShnpiA2DZIGrjfTbOSYpzrJXrDG4cbU840BOmdsRmxtxwD/m67ip16ltxXb14SOYa0DSp30OntKXh5hm4orQHic9buutyu/x299HBgHrWvuHu1BOgqrbuWQCwuO6I1f20geSGo2HfsC/Nega7+xHdtEHFoabhiMYoSAOGS8RGxqxnbyArINMTmkYg2yTNuw33EsFg33oxTBN5RtvyKpmCWkhZTftlS51rJXugwk1B4YySo5R7loVYdz5aeU8AksMs6oxN4UkO5hjFRHvD2uF2vVUBNPq+x8ZFDpV7PsNda8bW/nSDuJ3fGNm9v7N698jTxy4fbhNzgU12zk9oPCayHPFuFW1654NunBNZaw9ZXjOJWOSyDFiSh8rxwQAyUVcHDtPsHPt8rZWZgCXxWZ5Q+QxTbXqPBvMTJIreDR9PJbo3880bcFaNwuWbfQYZuZ44orBvScbGx92svFRL9pz5jaTdJPuNpKXRajyT6kO7b3v2GiWxATX3gsDNtbr3X4xc44h20QwlszM2gBhQvlHvrE4gN6xRrKS91j1IRYeOymZywWm0+bjEB4BHUvcgRlEARtGpLQpL1HBLrsmfI4/sDC3uZXb3FrKk5GDJJpF1C4oyW5/moY6vwm6XN514wtQCu/ilxFmWcQ19Ra1znHaZYmrM+aY2NhNPvhvnk9cuEg/IvY8aPwAc44abw0388tWIOs6VItKfTdimAii13OxIyvuYsBvXiZLsYj+6TTd6jBMm+x0OYYg4zGUkQRxxw0KuT6Ubp95Rzb/iO4LFfX/B+ykPkvMwfiw3ZvfWS8Zxuv3ys2gQ1+q6Eu6EhYOUNXJGtnvNDbm6evFqOaXPFy+uUzEpapnx7turfjtZezwM6Wk5aH7UzD+i84maM0fkUO6ltYi08WI5FWwvNkNlkYujkg5fXCS1IS7ERKzmQgmI0/zJ30a4XW7/eP8Zhl8+ff78/Vccnj/Xn22wP33/yYfy4/8A);lineShape=1;fontSize=6;" vertex="1" parent="1">
                    <mxGeometry x="114.09739607476342" y="162.6864264293693" width="24.672285375955344" height="67.95112162737787" as="geometry"/>
                </mxCell>
                <mxCell id="24" value="ye karna he to simply ek empty vector banana of same&amp;nbsp; size&lt;br&gt;aur fir usme right se elements bharte jaana&amp;nbsp;" style="text;html=1;align=center;verticalAlign=middle;resizable=0;points=[];autosize=1;strokeColor=none;fillColor=none;fontSize=6;" vertex="1" parent="1">
                    <mxGeometry x="135" y="167.5" width="180" height="30" as="geometry"/>
                </mxCell>
                <mxCell id="25" value="&lt;pre style=&quot;border-width: 0px 0px 0px 2px; border-style: solid; border-color: var(--border-tertiary); border-image: initial; box-sizing: border-box; overflow-wrap: break-word; --tw-border-spacing-x: 0; --tw-border-spacing-y: 0; --tw-translate-x: 0; --tw-translate-y: 0; --tw-rotate: 0; --tw-skew-x: 0; --tw-skew-y: 0; --tw-scale-x: 1; --tw-scale-y: 1; --tw-pan-x: ; --tw-pan-y: ; --tw-pinch-zoom: ; --tw-scroll-snap-strictness: proximity; --tw-gradient-from-position: ; --tw-gradient-via-position: ; --tw-gradient-to-position: ; --tw-ordinal: ; --tw-slashed-zero: ; --tw-numeric-figure: ; --tw-numeric-spacing: ; --tw-numeric-fraction: ; --tw-ring-inset: ; --tw-ring-offset-width: 0px; --tw-ring-offset-color: #fff; --tw-ring-color: #3b82f680; --tw-ring-offset-shadow: 0 0 #0000; --tw-ring-shadow: 0 0 #0000; --tw-shadow: 0 0 #0000; --tw-shadow-colored: 0 0 #0000; --tw-blur: ; --tw-brightness: ; --tw-contrast: ; --tw-grayscale: ; --tw-hue-rotate: ; --tw-invert: ; --tw-saturate: ; --tw-sepia: ; --tw-drop-shadow: ; --tw-backdrop-blur: ; --tw-backdrop-brightness: ; --tw-backdrop-contrast: ; --tw-backdrop-grayscale: ; --tw-backdrop-hue-rotate: ; --tw-backdrop-invert: ; --tw-backdrop-opacity: ; --tw-backdrop-saturate: ; --tw-backdrop-sepia: ; font-family: Menlo, sans-serif; font-size: 14px; margin: 1rem 0px; overflow: visible; color: var(--text-secondary); line-height: 1.25rem; padding-left: 1rem; font-style: normal; font-variant-ligatures: normal; font-variant-caps: normal; font-weight: 400; letter-spacing: normal; orphans: 2; text-align: start; text-indent: 0px; text-transform: none; widows: 2; word-spacing: 0px; -webkit-text-stroke-width: 0px; background-color: rgb(15, 15, 15); text-decoration-thickness: initial; text-decoration-style: initial; text-decoration-color: initial;&quot;&gt;[-1,-1,-1,-1,-1,-1]&lt;/pre&gt;" style="text;whiteSpace=wrap;html=1;" vertex="1" parent="1">
                    <mxGeometry x="360" y="150.64" width="130" height="80" as="geometry"/>
                </mxCell>
                <mxCell id="26" value="" style="shape=stencil(rVrbbls3EPwavRIkd3l7TtP/CBCnFuragePe/r7Dqjwhl9LIAfpmWxyT3MvM7lIn+fDt8dPXh1P0395eX359+PP8+e3xJD+dYjw/Pz68nt/w00k+nuTDl5fXh19eX35//nz5/eunvrL/9NvLH/0//HXBeVdTB0X/9+UPkpzWf//y82X90/l5Wi8uyLpenZD16rSt68VJvr0+uZrX9dGp3l5fnPh1fXCp3V5fXS3relgg3F4f/Nh+AGJzxRNAdHE9Ud8zEoA6XywgsCMl11abwgpKbBrw/8yRsmtyG4Co+C8GJkBiAHFeLSCQI8HPxVw6UbPCJjsgFRKocRjxvYDkcrOATPwgzWnaAInkgri4HSmTYNXs6ua4QPyQvItiAYUBxCWzA2KJ+CEdgTBHKwO0a/lAABkJbMwKQ5MEyjIyfgI0tgMobvUDSICRUi4uqAVUYtaMaDWA4ITEUvHWSgAwK5Vg/YCAjySWSnSlWgDdIbkYLXVXtkNxyXC30gQqcFOwAErecWN7pWpVdZDKLFeEBGqxVAkAM2ttTjZBDBxgFFc9TSAcyfBS34HQTM2DhaZoZdxawUIbCQRmVtkAgSYQHJfWfAhlhON1gHdtjVboaiV1AHYwjuNc3K+w6kmldUaPpDVWQ6DZAKOW1W3QbUYBcFtb8w26HZnbQLzFeiGwO7SNKFF7EBprYXw8yYmSS7doy72u2wwg9tKI1UTu0NKQp4koM4mkljcqjkNgrgPq8OtUEtN6zHvn1zMpZ8q2VaEQbuoIFAJrOkC4hWgizOQNINOUhiOiATTnSUojNsrquRxHIXsd4K1i5aPYv0mta8pB9JgjkBCyuhqSJMSsyNG2HgmGjow10oi1A1BGMX4LYOShoR5il9ZRukwAVqsDYKrQDiChUdUmdT/SD1FlvzQTURn12mxWdgexnm7KqU82s0Yuoludi3CkIiqWvhFdjDZgVsPGEG5lVjqKowngmeOQ08kC7kSrZnsHKhDJ1ohdMphMb60oaIHKaB6kcgDgGX5pu0PiNeJ2B0Sr3rGSSaBK24fdD0ggWsyoLZcmyXhnMGELJos9XKu9BJsJ9Bw1ds2jMH1vyik3057UvOHoRzI7+NH0/08ARJ9RFH+vHTCXhsgFFq7VVveJzzW6Kq4JgVKApVwvsdYjaaEzgU6lpuHgIzsEgpmcKEosVmwUW5300QgR6rYNpDTRfhpHMoqCCoveIdmBlEbKAqAhSfbSke0Q7ECqX5oBttmMFN5aVpe3frryaDWTRJS6rKzsXGkGUo3LqNp8iNxxvS1bjxQaLwW83SEIFbnSbLebOd0HO0O4Q8XRimikQ41eXq3rj+x4JyfhwtSkxaZnKLTwhoYHM1ATeoUWttFpo8USOMk0D5JHd3ArF0zhDQKg+raNWTpjMLNugxxN90S6bAA2nN2HUf0OZAdEqmksNdFZK7oX8/YAAKsQCxR5jT3QJBv/lmhnrWA91s+UYEUdAM8Afpx4HncRK+U6jDjxKiOAXGz3LZX2xmg7o2nwCxWTLPY5BOGtbPwbLGcIQoNkHHrt/VmNJRC6eS0W4EkCJbGx1B/iCGukw02TmBSyg+ZNECOdhO7PIX3mTS69P7h0AHus3J50AGCdqxzV3XwHcqTvbxkTgJn16gMnq7v7i+vmOFZGQ8/SNi9mo9M+ZjQ78MFMyFZQJNO6O2wlKDIu80dUU+8hp5mqB79N+Rod/TRbKqm/886cDI1x3svj02k96wPUnl8jLT+PV/RpfWNDyk0O+VOLtxNKVeox77La9ULs6bcuRmiQ+q2JEToL9DaRNdKJkrdDMfgrkJDeR76eFmHb/0dAMybytgRDxjRuH7XrWangtyfQTOPNjw5w4ohCEvJHv1dyfz1++P4lli/np6fLd2Dmz+2XXvCnyxdm5OM/);lineShape=1;fontSize=6;" vertex="1" parent="1">
                    <mxGeometry x="318.69388443462975" y="182.7900703355254" width="30.184361618156593" height="6.420289772963169" as="geometry"/>
                </mxCell>
                <mxCell id="27" value="isme bharte jaana&amp;nbsp;&lt;br&gt;6 at index 1&amp;nbsp;&lt;br&gt;5 at index 3&lt;br&gt;4 at index 5" style="text;html=1;align=center;verticalAlign=middle;resizable=0;points=[];autosize=1;strokeColor=none;fillColor=none;fontSize=6;" vertex="1" parent="1">
                    <mxGeometry x="390" y="200.8" width="70" height="40" as="geometry"/>
                </mxCell>
                <mxCell id="28" value="" style="shape=stencil(7Vnbcls3DPwavWJIgiTI5zT9j8zEqTV17Yzj3v6+e6ry5BCUVmnf2umbo2BFEpfFAjrpuy+PHz4/nFL48vb68uPDr+ePb48n/e6U0vn58eH1/Ia/Tvr+pO8+vbw+/PD68vPzx8u/P3/YLLe/fnr5ZfuG3y64WKT1DZXC7399Itr+/OD7i/3T+dnZt8m+SFFiX0Xn729SA7E3SXW+T5JQCaBJCTOgSmA36tLmE1KgV9o8YjMAbyZXSipp9pEGaeyEIja/QeG2RABNtEyADC+REzRKmMOQ4WjiJVUpLs5JohFAkaozoEolXlIbXh+AyuOgXUqeAVlivg3IUeJ8pWpSOgEkSXOkDYErBKASZ7eaSmVXUh9pQ6QZII+47oAmnaQGAGkGtCiZn6CzW5tK5wDn1rYX+S239jgBepBA3qBNbHZrT9StW32pBxQCSFlK8leK5A1gjTK/oZlkxktZmgNkMcZLwScfAseSb2FW6/QJycfZTCySC41GcLBXYh9GiA6p3ah9NG+fSMzCUgk75dz6/uztWdYFz3iWaeFESUvtd3KfNF53sC+sCnzbgT2j7Oz5FPaBMPbSyTd7ktHmy367D+HrtpCpSmbSIo7jvzHAKLEwlxi4MbKMXrQCSow9ATGIM02giJncSXtJ7YA2vuJ6kJEVjhvhBlL1aJvZMRfcSt6w9SjHjSAiEufcRpPcAWU4+noi6ULXmTaEssiXrtRLde0gcfjtOqANcj7EgWk21Lpjo4b6INWPG9tcPm0nkOuAItkWAIl0NwnLCUbc2tdHx6GmrwP6FUAnbgWgOwAaM7tSH5R4EBeFZCsA6k7I/A1tNKUDoLErVT/xINJMgiFwqXgAExdIjbLkEmM+iBVHZABE9mgkQvGPrqSAWvcFtIk8DnDdsPESBaA5bk10hsEbnJxH8jF1jpI39QDGS33vl4cCqqzisvTgAYzukUulLiewSDcJy6MDA0DTNQ+gJ/QhGg9xyCQOMSzCqnGhgSOc0kD2MWWFV9sCMMYCtmwNCuV71KhX24XzzN8FbMnpAtFp34V48T0r0XEVs6YubZQJaIy/wXV24323SnaATsk1m5+rDtlya0j3eqaPZn9zdGv+ESz7oHOdroSb2NwA1ded2gjUr9CVTnlj1mNv6FfYODJJNljoyBpEqf8/uf3rJrfq7f/Lk5v5tgl7ukROS0Jkqjtj9SW8VQA5ASnhl1r4hLOKb5tKGzOK3q9rCt3vaFkaiFE5r9XPYZtmYxvVOrT4cfVH3gCAuUB3qqi0+q6JymcCaTthiTTbzgPg9I7xGQZuzXPgMPtFdgK6RZoBefD3rRHdL6ojbeRbS5vrvxjdnaPgnHYuieZSqj75tk5NGAmU5LYG+c6CNPgetcWeeAld1m1vlAculrFlHgDwWmesgaY6XynxVQloJs/ZCh7JbMkbPS/hK5igurKzpakEe8fEd349C2OftV+IE2vwy/845o1b9q54wr0ddcvOni7Bo++EgUu1ODLgqz0jYYSn+vszdRrVL57u2C8K+859sldSd967j/nf6M/i58078VqmnDv58A9+Deb2+OPrT8+fzk9Pl1+uj//vf6rGR5efufX9Hw==);lineShape=1;fontSize=6;" vertex="1" parent="1">
                    <mxGeometry x="423.8540525907662" y="243.0995358375302" width="11.977623950207478" height="24.940320566765486" as="geometry"/>
                </mxCell>
                <mxCell id="29" value="&lt;pre style=&quot;border-width: 0px 0px 0px 2px; border-style: solid; border-color: var(--border-tertiary); border-image: initial; box-sizing: border-box; overflow-wrap: break-word; --tw-border-spacing-x: 0; --tw-border-spacing-y: 0; --tw-translate-x: 0; --tw-translate-y: 0; --tw-rotate: 0; --tw-skew-x: 0; --tw-skew-y: 0; --tw-scale-x: 1; --tw-scale-y: 1; --tw-pan-x: ; --tw-pan-y: ; --tw-pinch-zoom: ; --tw-scroll-snap-strictness: proximity; --tw-gradient-from-position: ; --tw-gradient-via-position: ; --tw-gradient-to-position: ; --tw-ordinal: ; --tw-slashed-zero: ; --tw-numeric-figure: ; --tw-numeric-spacing: ; --tw-numeric-fraction: ; --tw-ring-inset: ; --tw-ring-offset-width: 0px; --tw-ring-offset-color: #fff; --tw-ring-color: #3b82f680; --tw-ring-offset-shadow: 0 0 #0000; --tw-ring-shadow: 0 0 #0000; --tw-shadow: 0 0 #0000; --tw-shadow-colored: 0 0 #0000; --tw-blur: ; --tw-brightness: ; --tw-contrast: ; --tw-grayscale: ; --tw-hue-rotate: ; --tw-invert: ; --tw-saturate: ; --tw-sepia: ; --tw-drop-shadow: ; --tw-backdrop-blur: ; --tw-backdrop-brightness: ; --tw-backdrop-contrast: ; --tw-backdrop-grayscale: ; --tw-backdrop-hue-rotate: ; --tw-backdrop-invert: ; --tw-backdrop-opacity: ; --tw-backdrop-saturate: ; --tw-backdrop-sepia: ; font-family: Menlo, sans-serif; font-size: 14px; margin: 1rem 0px; overflow: visible; color: var(--text-secondary); line-height: 1.25rem; padding-left: 1rem; font-style: normal; font-variant-ligatures: normal; font-variant-caps: normal; font-weight: 400; letter-spacing: normal; orphans: 2; text-align: start; text-indent: 0px; text-transform: none; widows: 2; word-spacing: 0px; -webkit-text-stroke-width: 0px; background-color: rgb(15, 15, 15); text-decoration-thickness: initial; text-decoration-style: initial; text-decoration-color: initial;&quot;&gt;[-1,6,-1,5,-1,4]&lt;/pre&gt;" style="text;whiteSpace=wrap;html=1;" vertex="1" parent="1">
                    <mxGeometry x="364.84" y="250" width="130" height="80" as="geometry"/>
                </mxCell>
                <mxCell id="30" value="" style="shape=stencil(7VrLchw3DPyavaL4Bnl2nP9wleVIFUVyyUpi/32a2XA8BGd7rFsOvq206B3i3QDnEt99uf/w+e4S3JfXl+ff7/5++Ph6f4m/XEJ4eLq/e3l4xadLfH+J7z49v9z99vL859PH69+fP3TJ/umP57/6L3y94rxz4lyHBfftv39J8v/+49cr4PHhaQdoTTRP8klKpvLFT/JFcqTysUzyVUIj8lU0zOf3ooUCvFE4SlECUHF1BmQpTIUsLc0AlRwIIIkaAKzAlI7j9wYAXouJAIKEWYcQOcCJxhmQJRNAbeLaDFBq1qqSjA6NA4o4nQDRSyahWpP4WekIuxGz1iDePAGeZko78XNwRyhNnqBV3GzW2KSS0NAiYQYkL5VYSZOEObxTlFYJAEqbhN6eeQxAxTCASv1QkMFzeGdEFwPgALNZc5DGAEnSXDRykkasVILo7OmswzPHAJx4Du+MgCdlJi/5ULw4ogMOEA0gSCWVNWebojADC2/YxM0ZB0N7onT24+sNUKWRaE1qzaq8LiU4bg4NRV0iSidn249m2h+QkG4ODdWR5ceAOPrTBmgjHA8BKFtxLjPVS3EEAKvPfqhRKntCGF9vAJ6ifm2iPEV9GZEzAGgAjlQN70ad2wGUeLpINCrgjMwNktSqXEi++VFRftCmbnSzndNYAXDWZ4gKTwLVLWFXad1eOgnkEwkiZ6sFwrrR89Rq5TOR9+PbnTzNAhtx6FyN+CtKUCvPGmGyfRDyyoqdbeX991lHEJesvqy+49eclWeFa6nukFfW+G2/QTyweNPR73byhfhrke9Fi/5+nc8DdqVcfrYPKpAj8ay2mTU/IuSYetmOD07MaL9fCgRoOhtE/MLiW6EeQAqEBRDJkRCjNVsAm73QaUxr6gByJPQy5xcAy8o2jLgHEDfkhQzCrJ40DgBM4GH6qYyEBEv7AWCkPMfFDyeANDJ3fyRG1TbKsVeakcE8avMOwEbIXOy81oOPmXWZEwBg+YAjmQTFnBtJggJgOhoArON3umkAdRTZW55uwQIYVct+idY62vSt4NNF6UrMmjCdJQtIpO0AsDqOjV8AuAXAikB/glE6j0Pe1MFZQGTB50a67PKh8TnBkkFkHIvWsFQ+AJjjkt1S9Z0JO1JeAJnyuz5NqQWwUpmXIRWOYx3uMKczC+88ImcXfHRey2PY2gEYCXgzIC7bv9ZoeEfkdFsAJIHQ49LbAHlZnn3faR4jvG1BZwhfLZvsh2LsOYlftFDia7/MI30RSvmh4c8ofZmEa7LzVC9k7EB2K4SEY/s/tzRdzt+ctegJP3S2TJ7wz2WtfcJvf85rP+e1//O8VgfB3OLZDR5wvMC3u+8aBve5VYDq7LDKF2s+2P5XCy3UGKhMSelPYCGNjIpWB7bVXQs7jMSKXJ/AVq8xQLPERTMlwZjA1ORxpHEUkeYmUD3dfSdnWbM6OiqkZEtpqXROTbqsgU/2xs4OVCXy2SLY6ls854OLWXOj5SJv89YGUD7jLX7odIwv/MOsNA7JZot+H2CuFPjNZVmmeVB7RrNLGjbZAEo9Db+arpPyOOQxoNoESoGvhdzoGhvA8boaxqXgAEQQHXafleyiJ5axoD8GFDsUxsRbQ7VX2jFQs6IKmeV35HUJXMWEN+o/u0Gu0d5BoOGxBAJ7avOR0LEZf0Rxj7PjQCHY7qmqZSTgNIlUDRBA00J7A2CvFqyvLhR+Mb/cZ4Gns9G5hYN3BTwHmCnSe6p0W5dV9JoDLNzP8nzHCPlkMpq/rrHwtpPXQZINbT/Wdbfk81zpHa0XffNg5Vnm9KG9GvnAHFZsEeb3Xn2rplaedLY+ZdnzU/lq/XtynmoH8hN9m+XxJ/Zstvye+KtZNsLj4c3vH/0AAB++v+706eHx8fq21P57+3oU/nV9tSq+/wc=);lineShape=1;fontSize=6;" vertex="1" parent="1">
                    <mxGeometry x="411.0397003937835" y="299.47335286085934" width="16.493317073748194" height="33.43072615738193" as="geometry"/>
                </mxCell>
                <mxCell id="31" value="&lt;pre style=&quot;border-width: 0px 0px 0px 2px; border-style: solid; border-color: var(--border-tertiary); border-image: initial; box-sizing: border-box; overflow-wrap: break-word; --tw-border-spacing-x: 0; --tw-border-spacing-y: 0; --tw-translate-x: 0; --tw-translate-y: 0; --tw-rotate: 0; --tw-skew-x: 0; --tw-skew-y: 0; --tw-scale-x: 1; --tw-scale-y: 1; --tw-pan-x: ; --tw-pan-y: ; --tw-pinch-zoom: ; --tw-scroll-snap-strictness: proximity; --tw-gradient-from-position: ; --tw-gradient-via-position: ; --tw-gradient-to-position: ; --tw-ordinal: ; --tw-slashed-zero: ; --tw-numeric-figure: ; --tw-numeric-spacing: ; --tw-numeric-fraction: ; --tw-ring-inset: ; --tw-ring-offset-width: 0px; --tw-ring-offset-color: #fff; --tw-ring-color: #3b82f680; --tw-ring-offset-shadow: 0 0 #0000; --tw-ring-shadow: 0 0 #0000; --tw-shadow: 0 0 #0000; --tw-shadow-colored: 0 0 #0000; --tw-blur: ; --tw-brightness: ; --tw-contrast: ; --tw-grayscale: ; --tw-hue-rotate: ; --tw-invert: ; --tw-saturate: ; --tw-sepia: ; --tw-drop-shadow: ; --tw-backdrop-blur: ; --tw-backdrop-brightness: ; --tw-backdrop-contrast: ; --tw-backdrop-grayscale: ; --tw-backdrop-hue-rotate: ; --tw-backdrop-invert: ; --tw-backdrop-opacity: ; --tw-backdrop-saturate: ; --tw-backdrop-sepia: ; font-family: Menlo, sans-serif; font-size: 14px; margin: 1rem 0px; overflow: visible; color: var(--text-secondary); line-height: 1.25rem; padding-left: 1rem; font-style: normal; font-variant-ligatures: normal; font-variant-caps: normal; font-weight: 400; letter-spacing: normal; orphans: 2; text-align: start; text-indent: 0px; text-transform: none; widows: 2; word-spacing: 0px; -webkit-text-stroke-width: 0px; background-color: rgb(15, 15, 15); text-decoration-thickness: initial; text-decoration-style: initial; text-decoration-color: initial;&quot;&gt;[-1,6,-1,5,-1,4]&lt;/pre&gt;" style="text;whiteSpace=wrap;html=1;" vertex="1" parent="1">
                    <mxGeometry x="315" y="330" width="130" height="80" as="geometry"/>
                </mxCell>
                <mxCell id="32" value="&lt;pre style=&quot;border-width: 0px 0px 0px 2px; border-style: solid; border-color: var(--border-tertiary); border-image: initial; box-sizing: border-box; overflow-wrap: break-word; --tw-border-spacing-x: 0; --tw-border-spacing-y: 0; --tw-translate-x: 0; --tw-translate-y: 0; --tw-rotate: 0; --tw-skew-x: 0; --tw-skew-y: 0; --tw-scale-x: 1; --tw-scale-y: 1; --tw-pan-x: ; --tw-pan-y: ; --tw-pinch-zoom: ; --tw-scroll-snap-strictness: proximity; --tw-gradient-from-position: ; --tw-gradient-via-position: ; --tw-gradient-to-position: ; --tw-ordinal: ; --tw-slashed-zero: ; --tw-numeric-figure: ; --tw-numeric-spacing: ; --tw-numeric-fraction: ; --tw-ring-inset: ; --tw-ring-offset-width: 0px; --tw-ring-offset-color: #fff; --tw-ring-color: #3b82f680; --tw-ring-offset-shadow: 0 0 #0000; --tw-ring-shadow: 0 0 #0000; --tw-shadow: 0 0 #0000; --tw-shadow-colored: 0 0 #0000; --tw-blur: ; --tw-brightness: ; --tw-contrast: ; --tw-grayscale: ; --tw-hue-rotate: ; --tw-invert: ; --tw-saturate: ; --tw-sepia: ; --tw-drop-shadow: ; --tw-backdrop-blur: ; --tw-backdrop-brightness: ; --tw-backdrop-contrast: ; --tw-backdrop-grayscale: ; --tw-backdrop-hue-rotate: ; --tw-backdrop-invert: ; --tw-backdrop-opacity: ; --tw-backdrop-saturate: ; --tw-backdrop-sepia: ; font-family: Menlo, sans-serif; font-size: 14px; margin: 1rem 0px; overflow: visible; color: var(--text-secondary); line-height: 1.25rem; padding-left: 1rem; font-style: normal; font-variant-ligatures: normal; font-variant-caps: normal; font-weight: 400; letter-spacing: normal; orphans: 2; text-align: start; text-indent: 0px; text-transform: none; widows: 2; word-spacing: 0px; -webkit-text-stroke-width: 0px; background-color: rgb(15, 15, 15); text-decoration-thickness: initial; text-decoration-style: initial; text-decoration-color: initial;&quot;&gt;[1,1,1,4,5,6]&lt;/pre&gt;" style="text;whiteSpace=wrap;html=1;" vertex="1" parent="1">
                    <mxGeometry x="318.69" y="390" width="130" height="80" as="geometry"/>
                </mxCell>
                <mxCell id="33" value="" style="shape=stencil(lZ3ZkibFDYWfZm4rcl+uMX4PIgAzYQwE4O3trfREVXUd/f+XcAc9UndVLtLR0VKf8le//fDNL999SuG333/9+e/f/fvzt7//8Cn/5VNKn3/64btfP/9u//Upf/0pf/X9z79+97dff/7nT99++f9fvlmS67/+8fO/1m/4zxe9Ho4al1YK//3yk3S0+v8f/PWL/I+ff/og34bK5yMkkO9HCCKfO8iXYzSRHxHk0xHrQ74cOb+Xr/MIReRnAfl61PmQv37wWj4eMz/k25HCe/kyjjRFvsP7lnL08ZDvR2wgH4+i8hWeJ4+jd5HvsD65HS2L/ID1yeX851t+wvPnfJSn/DgCrE9OR24qD+c52/pEkY/0vnZfhsgn+P1pHl2fP5P8OGYX+QLrcy/HLV9J3t3HcTSSr/55Oj3/dZ1u+QH30a53ryoP9sHMU9X1HAPkbX/d7yf54M8Pnec4j6LvO2F9om3Pcz3NIMH6xH6ag1s+gr2N7RhV5BPcl1hPc3DLV5IvR0kiT/YzZl3PaCsMGxCTXnhToB2LboftJxWOkP2+9HyF9TfhHaZeeZOf8ER2AuT356PC778swiVfcI/tSDSV73CG+pFEvh4ZfEBTF2PytAPtyPK+7dzD1z7yaM8jbYe8wYbVIz2vmF2iDOtZTgtyyV9O/418dfId3recHv2CTOFo5FNPBHPJ25GF9816xczo0ZXJpwW55DNioKQue2Emsunnabnk7fyQTVSXYSeEMEc8PdAl3xGDOpe9bDTZoNNDX5AyIIaIR3w+v4EEwlhRIaiBkEQW60QYl3zG8+x/f0EM7Z+f73vU+2WgjjBQPE/XB3n0AWrRM9/3eP7rJT9OJ/LmfEYJMeZpYd6d/+d5K+EEvW/uV3q+r4HqThhXIU1JxwB7XjQEKPkMIt7Ii/0vFc9bOb3VJW/7C+tT9fyYPGGaqi6+dLyPBjlkPcf5Rm/kBQIV219438tbXSFbQIzbjvB8fgvi6Pw0vS81ob8zb/h835rR3lpI9bT/tWAM2TRkNnnaLwsBZH1sxeD3d73vteH97S5ktp8gnhF/XcfpAd/gJbGHFtTT+R+nt71C7HBajDfyI6v8hP2d+jwtoj2cClhbQo5jnhH4JZ/xfBrAFUDQCmPucPqTS6GihTCFNlUBw56gYWFraBPj5XIvhY6XfoUBTy/QBq+Sgx1tMuywXX3aoc5+w8IEMaQ9omFfcYiQKZn3Iek+9MJQIp3bdCkwn2WhS3oao97QWJhCeS5rZ4bHFMTd93kaqHcKYt9HYLxS1OCNDaArpz25FGwr6ZGKsmwj7x6piULhly7KK5oCGSWL2ZIQQ/WkBt4yAcJkGGxnBfE744o033ETVRQGA9nuyJXJSHYo9JqBFabS2aaA/FM479elENG2LnT93OmZkPExeCrh5bwCtncUmpiZeSHWdxydBCCmgCRdVYcyOQJZrGFQBYJ4C8PII1W8cQs0VFUg633zipdC432YaipNgcJeixJ1lRpz5y5wmR0fKfud7mfs8I5tF+ttCnSnLVKMUxU2/H+MqjCI0HcE9NxkABw8nAPpHIsWxSkuBfoLUwmRpUABlcGf8qcUHNZYCrBxFjF29w4RNs5CRr9KCQBWcQ7FFMhUWpApYeRSoHfoZ2bwgwLxXqYw3TvQabW4cbhlbfTS8yRKPyh0eOnquKOlAH/BQsHqHgkThq82jqIfC9aC32l6h/bCahCfa+FadleUCOw63Cp1ZhimU2iYtmouTW3mnvy0hWB5qkKhIDopC2Mua5JCdqvENKoFYcIjmdsl22oxVXYKZPksphLsPZmJbF0xn6GZCh7IYioBugsvkcI80dEHhUjkQVB2ZXBGymKqKFCaU4g9qY8zBcKtKwiTHGJHQsmCMHGKphDokapTaJiSsiAsSjhQMS9rQZgYgVERa/Th9qEgC2tRm6BKi4GolMEUNLWcMe9lYZ7mihNm+izM0/ghYTXA+meJUDiXaAr6SPHcmdcKztzbW2VYpeHMfZ94NIZLx3UmQkxhTlVI9BeG0kV2unCVLmLlA4lARIjZCEnJmQKhmemMQOcc1bJzQuaUnUJ7mnszC4T5loLsQ0L/sBSE/YkIf5bC83gvQoqW9RXlRZzAUnguqzkApDajIwYH1oeZQhfariMyXgrPZTWvR7Z1KQjdWjH9txSEDc1nRv+tgrx0QqdoCkNeOiISWArP02qAiKLdpfBcJYNcm7OkCgOTtv6RKhsB/9IrjbDZaZ+n4BsniTFTIKLfH43KRLk/fAbfd2dJVokRmb8PFoIQ9vY3rgasXvAKFhVROctLBYpF/TusKsfNFXUZROKX1lmSKk4uMZiuLNPCWQr8Fkn33OlSEFWagkA4UyCwvqC5vHRGtztddqAkRMbTkQglntD3tYIDunnjH7KWYpgCoXtTEFJt0TtkKsuJjj4o4I1zzPqiqOh4V1ehXNkIVA38cuF9qAodMifwpqNPc+LT2jSkyZGNQNMaoxxONP5OoTkFXNbmqp4m32lHDKaNB+quDqufgOidgiReV6kbhDSzu8qkyrjVsdJp44Gu6uRLoWAsumjA5/Fe5WJ0RYfmH+76l3cKgu7TJp09tL5nUw/nFSIn8OdwRaTjPCx/cFljY2TcNRy402FvT6sUDRY+Gk2rXkyB+NZlBJ43bmVK6ZHqi7pWrFsoWhhhChSLLr7qeeNixBDfPJDch5XXZygtsWgMbFtdcdwGzATHqSHhZaGrnNWJ4ckYukQDD97oLq+L13m4czfQpQ9XrNTxTIyqvGlH2DNc5rtjTcTIZxhyy1Mt0UiOOsBLMBxC75gRGEEzAh1dc58KVTfyQ6OejXzXlEZHYnwRKdqvQ05zEYf6PJRt6C4hyBnH7vBax0KI7vp7GsbaPall3xClwcVT6MwWXy0xJN7HNrSfrO764cQdFwRqraljKtgP1Krig4yFWTe1cctjEsPFFAnvb3NMXuQ0THDNEIiHVimfOAxkg+7Sv1M+YISz5KPIY22oex5ud2mu3yigPW+u/yxgbtvkJVIOiJxa9O+L5zm+eH5an6j50cD767iEgDnk5iidgJFTc/4isH2IrnkFS8lMXgKtiL0ZzRHZEe3bKk3V58H1CepP48kqvJMv+vsznYegSc6I9n/dF7f+/Pvd/SUSccnreUN7HjS4D9jfue6jylPAZ/Jdn4foDDsPQddnc3+Tsw98X/6cfFZyPHLtu6NjEmZNzH8JD50Q75k/df4O7efQMCxjWfHCA9rvPgm/udKgwvgqnsVPtzzZH8NLsl+V8U9R7onrJnrVlGlD+99dfNGQG155aEl9YK3iKh5WvEdR88LbUeU5a63JHpRf8YK+L8r77BPLJ5feQvxw59g/4GHYL4vXmr4v9WZYPChJyYbFqBZvNn0e6pWyeLZq/EXnbQxXXs7p86l4knsL7+qUO76mioEZFf+PHV+hZXfMZCU9zxPjwZk1WRMDJ2uKEruRuxpWHZUglKsh8x3zJcVekX3AC24t4SFaNaryDhlR0AtCsXBmZOjYih3d5/xG3CScpgLj2BCZTdcWFDuWnkxX0Bx5VkQMQSn5RdTSMk31Zgue0Ua48Rh3N+c7BcUT3Fzp13V5fFbQ9uLCeYipvOvqiKQrNxXTbYbETEciJa4nm8O9NJd8viD9B1ck+DzERMewqrwFqAVkMqYbc5CZCphXl+GlsDlL3TWGZ6yJm45sMwWqXZ9NrfGaf7PJy7lkJJq+pr1NayIPPVJVwjP306C/tfeyrFwuOd38hVVgTzeuKOYsTMqYgpCAhfuzvFcsGweRtTC2FIzzZ9bcYqns2N1glFLZkOWzhuJSaJxFzkpFlc5zTrJWcO7qNly9wK4y5JUCpmucwq66xSts6mfcS+8qdLKW3u5qgLKGPLsqo/yiQRsNWXYd7JtKqawXaFeL5WaM7Kq9svq4XT2ZV9hUrLlH2tXEZYXqu6o7t6y7uj63cbvKQXc0drWJWemyXfWjO967+kp3gXYVnK4pbVcjmhU67KpQsxZ67OpcvULcRU3SLLtqdXlZ9S9kBt9ulToTSessudbuXa5dFJgaMgVJJdzJwXcKcjT6pqoiutr1zkGQY5v74HL6qYbMFDZ8g85PnEyw+KblwD0ErmtncEvxKK6XI+IqjeQa4BMXDSQl5e0n1Ns03NTIkZlWCq6fPTOPObUyZFUSUGJ5uJeu3Ejk+kZXAzxRt64HeXBTWq8alo1tclyHQfYd2yujSMbAchUzW9qTP/ECLf45qAJ27UQdODm5gaW7DI8pEOYzb6B9cpt5PK7EzSwVTcFYSXjXWEer1NqLjnkql2yuoWs1wMMFaq5lbG4KD5yfXqEgvXR60XNJYVlzgxUnQwfDXwJ/JhcPGSSUaq9VGkiNpl2zQ6ZANFxtrvF6Yj6vuvzHZMK1uuEicyJ/Wh3Dv1gzapaNrq4vcBLQYiQd0jnxuBY34nIpwNlYE7uiKhA0Ll0t2c1fvlZoboQEj+cpbhzJ2jl66eKo9YkuqLjc580VvlZ4tdU4udLPCeCBJ2sSgVtWUrhH4/1RhaH5gcnFutlPrJ3Yu5fbi6NBNSS5as3DHFjUmIs7SzwxMrsRQ5vBAjm5d+CZhdnlBTcjJHLQRO7syISsRFFSBTKuabiWeWaZk+NPJ3OPyWWCJhPfi0h3XpGM65pkmlSB0ElyHSzLUfMAanUQnDry40oXuUgKwXXxZzT3cWpN7WoVorFhwxmByLOhuhtHEpEZjG7GoIE+gpWxKR06N0O9XKHIYHMfXZ/PbvpU0VKOsZlbWtzs8Majz4pyXqMhDo1ZcyIW01D5xJo8LX+h8MZlnW9lgRwVfEVHbAxuc76HZ38Id6kkzhQ0zAoYZq2peM+XtmiTOuti+pO0Q3QjJHrjaWzxBTlDPMWaYS48RUEeO7pCrs5ToGNwleMJA+oYFJz0iMxgdLWtjVFlDMoXLSqR+CLXR92x2nmqD22blLmbi9k4s+v434rBw9BcXOMxacNNDs2bSfQ6RDNjFss1H9xTcd7Ii+NpXN3tivXu8snXEaWiqsqZxKZZu8pZ7KYtuLWjH3QjsCy+pPWvrl28IcirWuxfebJzdc9fOH7W+1UZihQ3STkhi1FcL3rkqFCbPyp/68HN5SybMFXvY+FqKzecxeJcYsSzmyTe0dH4JDF3r2QtriwVUZTzlBbjEhBM6uwtxOXJ/nIeCqdJoqLxwiUcwTWsc3V0UPuTJ6L9oMOoVnQL++u+FJLZPgTN2WQe6Bg0I5k5HnL1WJvJ/kHx5ebLAf55GEMETZDmtNlfLVbhdtCgtOvq7uT9kmqygYjdFe9vuuGCEkB3RPvm/Gt3d0UGNboqLPbvUfGD3Wiyh0nP56a1O7mGeUZ8rlh17SANNFUO20JZCjayKz3liZJZ8UzkaaZuXGpkxru4ZqCG96u6tvSKz1PVvsXK3Rl6H2PhbiDFw2u2Nn45QJuTeNKwI30tcKKaDj8YIHJ9neLbyMOYpzsPYTeFXjcs8Oe6kksUsUPNiuA44Fn7qZ8zI8p6sST6uTQMbJtvX0fqqbtBbTzh3kUwPC04ugisYw7Xf76N29GTmxC4kU/+fXGutZuYwAZoIe6k8kyQunZxCpBWRKXt+sQq3F9zvOXJoPhvZ3QMCFdErutJCZJVM6zPTwGq4QvX/kEAJTtEvAH0ziNtfr/7vOlGvvnzRmSzn33d+dNnbkwuf92hvGgfoiLuFT+pPGYu/cw3JAiqK04u+LnG6qbAF9zf9SUXbS9EAsKtT+aUufvW3qbdcWhElZDO7cG1oXD7n8scR7TP6/PB2u5LAXx3+cq4a6fUzh5MZHcXQSY8/z2ovUpcLhP0/ibMbfbgBkIhwO3Bt79SAN99RMJVVG4cRuISp6AIN+H5/7Ofk97L23/c367+/vOPP3759PXHf9dvXduPvnwnO3/9Pw==);lineShape=1;fontSize=6;" vertex="1" parent="1">
                    <mxGeometry x="341.2959093584988" y="403.36187958143023" width="34.18378373400794" height="38.472651826731926" as="geometry"/>
                </mxCell>
                <mxCell id="34" value="" style="shape=stencil(lVfLctswDPwaXTEE3zyn6X9kJk7tqWtnHKePvy80GsoiKK+Vm6MsJAC7AJeDe/rYv7zvBms+rpfzz92fw+t1P7hvg7WH0353OVzl1+CeB/f0dr7sflzOn6fX6e/3lxE5/vp1/j2+4e8Ux8aQMWOYNf+mR4bi9OD7FHA8nBYBpVBODd5SdhCfWnwkkzC+zaeQyRAfQ4NnRxxwALcBmRhnFHJbsSe2ICBT8E2AM7UJ6wGRQluDS1TQF6RE1wT4QB4UnROFloXgyIK2ZlNZmmkzlfjVgMSUYhuQa5KrAdGSaYtOHiopMNm2aEkyAal61tLOAX5BaCql1Z4hW+4HWPmCCvDkPegSWSXuWb7rTaqzuMBnUHKgxBqPhOT1LIx4IAtHXs3ObX+sd4is7z4Q7+M7jseCAd6QzxqfAMWSbdT4AGQt+C4fD+o15IrGW5BPL6BSn9zpp84/V83eIcxyhwcC9ZrgEQ8EGvSqG/NnJOieLwb4VDftsp9AD6nLX/gC/U/kOjw6/iLlrt4E8pHDrsNnMGC+20AyL0CfjvJXBzJ2DUUTzysEFzgAsSsggfcb4m4gI9hYnV0ZCQYCNSsLBR18q3gwYOy7iRR3gAhwdSPPp9IDioXj9qDM89Sta8hr0clB6UFPg9ceLc0Hw7qquzURE1zryWpZiJ1IICXJmNuixbAglyY9iW0NYokccjhFEyemC41m4brZlrYOOU1Z1i3Tj4wj6+l/ZE25Luet5pfr8G5011wN00b3zvX03Xg7YG1wHtw+uKrmhkfTP1KQFd4hBqy+TZjq2O4ZcTUIBg6/7Aan8Qb1J9Tls8Cj90dyup8Qn1bej/IRPWo8rHd2Gxv7KW5M8wv5mk/TbXr48nV3Q4D8uN2u3w7H43Q5X/5f38bl0XSTd8//AQ==);lineShape=1;fontSize=6;" vertex="1" parent="1">
                    <mxGeometry x="354.0932559303348" y="442.2197703398116" width="3.640829760718687" height="25.43625747850259" as="geometry"/>
                </mxCell>
                <mxCell id="35" value="" style="shape=stencil(lVhdUxsxDPw1edXYlmXZz7T9H8wAJVMKHUq//n11Te84ycm2vIVwm5NWK3nlA199vb/+cnso6evL89On2x/Hm5f7A787lHJ8vL99Pr7YpwO/P/DV3dPz7cfnp2+PN6e/v1wvTy6fPj99X37h5wnHTFUWVEm/Tt80Jh5/vvlwAjwcH3eAMqhlDxhUBAAa5eQAWkkTAFRK3QM6VQTIJMUBeqHGlwG5k/qkeyOtACAkHjASCWApF6rVA5iaXgYoSXheKaMyUPEpj0YVPJ8o+SL0QT2j3xdf5W4kg/grMfua6Rrh2ecbSfPPZ+qgxoPYx99kZfhSAYpPQDoVVDGJjEqCjWAi+kv4CqiZRscy9SKy5oM1qCQ+6aWX0BuUWB0gD8qgEYzW4WWXmTIoM0+6NlbBC7jSCCRRaUBGKepoE+75540QX+YM4699LdFWAxpAppJjkXWdNeefr7HPTIhIRdIioYuugChMxsOryChtANAyqRcFZzjsrLPC/OVBFRStTSFVhc2pZSV96zWhhgAazxA7pRR0gk2r7GnVRAPk0CUWzt6J6tDnM4Rhc45OzdM6KqR12LmqEYByMID6ZhgCDx0DDD+F7RQRUIcFEHIwllDSFpLvH6OBcUgcAGMt5SVaO0dAAx1ngKwRMFBIW4p7AKpDo16mkIBFMkCZ3pAQrUJ9phUdn0IaQlLoqRZAYMkmFWKpUQp1EDiXXg3LXt4oJKU0AdCYMUDMoUKraiTWFgGMOy5NPa0YID2yhMbMIrUU61CQ8UmT1VusJG65HmLqWH1jMqsdV25M2rCfALZhbIZ/33KIJo2jb8fDRTVNMSmaG28F2JEybxmoI2xrSb5Je6IGcrC9KAcXbf4DCFw5qqlts+r80T7iHmD+4x/mIRg4s9HI2Js9CbTWsg638wbI1BxstEBnP3syM60VqM9MX/H6tnWIAaBOBihvYrlkW8P8NpuIjpTKcZR1HFGKtlLXfei8T29RSdn2MaAkW11a8K0NLqxmOmMVMmyfMp3T9g062IvE7YfxqFyWXD/4aoU21LYp9SwJXpeyxi3U5C5gtOa6pri/XcEXDRwKLbCjc1oXsN1mj4ZMWwfv9vzmfM+/YFvkN0BdLdrFnOtbIlpYDUuZUkdlGNEjLoMQK2NeH1D/mPbEv6FVLNZtMd8NVgETYLl3CwClgVbvNF1oKLwiMkDXCED9w9OFhuBLH54vZfCSZYA+5YCuTGwshXYwWtH+bQANAKsMymE6TQRvAwaIu6sRjQHJh7Ss8AjAkaVWqKEc3nrp+x8A+/B6x3x3fHg4XVHv/x/vpO2r0302v/8N);lineShape=1;fontSize=6;" vertex="1" parent="1">
                    <mxGeometry x="354.0370457487468" y="441.5884676048894" width="8.009105482524134" height="5.9653958952103" as="geometry"/>
                </mxCell>
                <mxCell id="36" value="jo bhi baaki left ka part bacha tha use gaps me dal dena&lt;br&gt;backward sense me" style="text;html=1;align=center;verticalAlign=middle;resizable=0;points=[];autosize=1;strokeColor=none;fillColor=none;fontSize=6;" vertex="1" parent="1">
                    <mxGeometry x="274.59999999999997" y="470" width="170" height="30" as="geometry"/>
                </mxCell>
                <mxCell id="37" value="" style="shape=stencil(7VvJclw3DPwaXVkkAW5nx/kPV1mOVXFsl+xsfx8wCt8MG2967FsOvkl8bC4glgbIeZBXX96/+fz4kOOXr8+ffn388+nt1/cP8tNDzk8f3z8+P321vx7k9YO8evfp+fGX50+/f3z78v/nN7Pn/Ou3T3/MEf56wY0WSpqoHP/+r2WEmv9t+fkF8OHp4zWghNh2QAm9EkAKmneAtZTbgN5DrRvAWiQSQAmyz9A1FDZDCk13QKSA1nHTrYaqBGALiDsgh8EAKaR9SXWsRZ4Cag9pl1KtYXQCKCjWqqvlHCBB9k3XHGojADtXmCGFSA6ujCX1Bbi0nANaaADoITNADXFXDWsZQgCKeygmN7aHHHrfARoyMaBiUtpVw4ZogwDiEuIBSCGTk1Yzl7EBdNAZtIa278GGSGTTak5gl5INIYkAJGQAHII+B6RQduXTHArZg4xlXwcgrl2dA0xKsgFsiEiWJCal3VVKW4I+B5hf2rXVWhqbQZYFHwClJy2mObCHQx3PASZWAKRlUueAiE7AWpgu5YFitZZGvEZ22motFNBC3c/BWjqxuFzX5wNgToBs2j4nmKGEQQ7OPsuu3lmpm7HPoEtZ6DkYAOJDzkHJSdt4dfca2UIME6uEuCtfGjSwzwXsS0p9Rb1zQFrjHYC24uotgOxSSmZAbIaI8SGZm2HnEEPalS/JajkFmEzqrt4ph0jidBroKlMMg83Q17kefInGdesfFfpH4oqnzIGaLN983r+iJ67Lws/7l1DA1YdOzmyeEHhJvh7BCJ2o9dv5dFAifsLmU3dvYedFlHT2b9CfETfrPwr0L0yeshjOpb+w8c3wsX9i+uM8S6RGaf0r7pfqW1l06Ko/04fi5RmJZzT9BGph++X964D+melDQwoZgzL5mDkJ9K9M/hWDfl4h9+b6IYSvWHJLngMoME3wkkvwGtd/RfmYg6MTmAGAQQpNCFNyPpezTVtAdqEsEUBHEZmPYHHGkmYIxkIJRXWciOfMBSOrzShEpOZhYfzOfUTIwD4G9RERE2wbP5PxI6qQSaCQ9UdUoSkBYpMuIzIJCJH/4aGuzovlN9Yf5JlWELnVH84rrrLKrf5AUwZNY6PjEI3yUSf/6TTo+BmYXKE+MSJFMQvm64GQaj6g0vEH7DdReZo+7/pgHkCYz8UMYtCUPWOE6TTC5MXvLg6UGZeu4tbFP7PM2HITdP+MHg6n+lST7WDQNXA24KJvpmxgHi2YCmU/2bE9Xkeb4oF8lUbrKZ9dnEo9g+XXwJaUJquzBgDlIaqZ0l05iUbfWRVBds4Kk1q8cjJPrgPl2aj+lIz9O61gFEU23GlRsrR1nJf+g5huVdT/sQR2qz/Ic1B5VlcJ49UO66+4Hna+tWAanyJNXwxQBgKU70DdDLTMWzDaGYCxmapY5r2TAldXBzP/z3KAWaoeDsA2bV7QL4nNkE+kxOpgBkgOUFh9PrlNR0pqbAZkEZGyXANApBmh8y007M8yDTsFyHwGLZ1b/+5sk+sRnPJYcfxW/4HjN+YrCpabzDbZ+l2lYx4An6BmBAjb8UGDr5WIW39ySsSqLyYjqCDfMwR1M9wxNXEO6a4xfx+gVCxqT7GyICVo/bzEViIGKX5NpQ0LnYOKSN0hdJr+aFrs/CpFJ3onDYNIo55l3kPs/SsN+hLROVaazkxCjJSXBf1JkRX6Mzub2RqSNFqCGbh+pem2ZUdA0mR5mpsVj4z92fgRS2y6Cg43yhegbgfJuFG9AEpa6dVDxSjQqDCLJ3TMqZ/4XFYLUpT8dIhElHriS1gmrO7GgedL6jJz5ZeIjncUGgEE74nuZPLi3DmvFAi+hLhTiXD971Q6ZF14fmMlRfAm+k6lRhYJ+8ZKkB+/0Gs0wQulWcli+S2mP6b+LB8Wl543GusUOd+dam5x6bxwDoTvVuy8WChqWKxPPB/rmH6aPjNXPhkV0GihCeUltfjG/MccAhSneIZrDgEKMLxWOSsqu8kIzQOsP7wayKu6dav/j/utH/db1/3/X/dbDXOYSJ+omANJ+3oyl+fA8xVKOKb40H6Z/kzzcGSYPYBJSK8azcAu19cXwkRfgrgK5ODkOaO9THrJNiBLv644E32QI2gx6U6RVl29XvkZqKMpvEie3ZPQVPkboeKuHDp1u54WJ16NmIVWoAaRZg1Tb9yTH+bZZ9YIliM0EZhpqbtHoy94hnu2VKixWWaI1wOVehc5gtEVIWJ7mC/aIFx2mvxLdpeZgz4vtmwYHUzkr/IUn+baIlk+KS6ECL8VEXehPFN2BmhYebI5WZ417yHgHqXxGkZE5mhDMKapGd2McqKmgrfcmvndRUHVUF1v3G7VbRRmKNREdaBN2xDMtxZ3/WVDMNUoGX1r4cX2onihZUMwPlUKbrocSeStchu4ShsiMUDH15E2BDvpMtwMjT6cre6FSOEPPmaNEYJ65LVkd0tSM3UCtSHNrkp5WIvIq2ql5fMm6DXqoC+H5m8Wdu/dMp2hR4zTNgT9JYYrHM4hiHr3hufQdYnhFDAi+iUbgt5/C9Lhkai2joaPbwb/BcBw2motrAaRonu/YggWFcfAqDj41Yp97g7A7m7mZ7ckRpjmijsC2G2JfYZSxEVw54Du3olFnloZon43AsuP/D7WAOBeJ4DJ6WD/14Ilzm+4UD3Phivsd/6E6z7A/rj8Yuzd04cPLz84u/6OvzCzppdfp8nrfwA=);lineShape=1;fontSize=6;" vertex="1" parent="1">
                    <mxGeometry x="342.82317707413523" y="372.8953702158623" width="12.056817202768723" height="29.412294445131906" as="geometry"/>
                </mxCell>
                <mxCell id="38" value="" style="shape=stencil(7VrJblw3EPwaXQnuy9lx/sOA5ViIYhmynOXvU4xAzmNxXo11DODbSNM1ZLO7qxfyLrz79vnD1/s7b7+9PD/9fv/Xw8eXz3fhlzvvH758vn9+eMGnu/D+Lrz79PR8/9vz0/cvH1///vqhS/ZPfzz92X/h71ecNbZ2kLf/vP6jNePaf//59VX+8eHLQd6ZlFf5YpI/l/cmlFU+m5DP5YNJYZVPxoZzeXxrV3n8gth/NtGv8l7+fjGVzseaIPRtJrlFvlYTrThPZ0JcAdn4JABhfD0BwTQFSMOgE+CkyVw2dT3TUk2rAlCNX1coMLITgManWsI4t+teNHc8AdYU5XbBuHWFXEyLAhDZcDnJQIDnlXVL2ZuoADjWNRQSjkEpXY1bYy0V44UvdedbDZegVRHBZrctOVOEDgEqrqcUq9QhBFNXb404N6FDSCN8JwBrigANxcQ1gAIYTLhG2EIUa1bhGtHxseIYsuCwGExYAbBMFiGKM7GrL8FZmlohm7QeK/w3i1OCmeyqNJhZAprxBLCmCV9K1rgVgChP4lgBaKvS4BHFGvDNvMa0KyPKrwM8uwaozQnnS4FPyU3LnAHIDqDnKgIIAWnXiHPeFOEaAFDCQsbI6ljjiK8JsJIEOmCNuEkjZ/J13RHMpqwQh4KTKE1R+3Hj68n1Jgu3gGtTSVJlLokz2i/6RrGfHs2eDzQIG4Mv3GayoDivckqHUzjhFJ2wGgMk0YNVKwPUoYY4+OcIUFuKXMd0gKLhwG7RdVBEj8InMEDZASxdHQNU/gSAiB6GU5wHACvtZFnSAYEBUZXDfnx9AHhlONAJbUnzNo7VJQYUEc8A5A0gLR03w1ltaT8I5RhAusqgWgwrSEtnPlZd4UYkt1WFMkjnujwcbbUCOE/Jg+XXM02mif0j/1PunH3QWTanE0UeUlkHfr/qG0Z2P+N4qs/9sPl1+WIsubUMZVTKxPG6/M/YvyN51VTlOJrSi7w6z5xHM3GQF/rmxv5mZdgXsAJFgNwP2iemCelvJbG+XpbApXDZov0HDWNl//QivqplTsmSUurMLZf4VQmzxkFpl5yviij04I3KNCcdqKLn2NJfFbTbHHflDj4oVmiIQNpSkin8Mjg5VL9VHGpro6s5VPAq5wPQtpJfuZGzlsc1PXCEo/YlPAOUJ3UlCgOiBvjKANUZtcrjkU5GGuC3LanobIVLow5Qpi48gOk6CL5oG3/1U1I6ZC4ruh2UM2VuQ25QKgBUlsOZVB0CpTnkmla6cBJxTbIwDMfNWpNpCoBs3wRoV5pmuaXZUx+7bL3ClWNVxISIawxoegVqFbprKG9t3OB159PEFAMDpNKV6ftWAFWuv26H6M5LkgTKFR1UCgLA7iGqlH4zYC+zi+yc29zxIaN4sUKtGyDKZgR5l0M0yGEEErvf+qMm7FC3yhatQhRKlzkdOLQKSn7j4qJLvcQ9ZJZDrV7qrfJRti4oJakUC8N1r8tb9oogZ2a5jMnDpZSU8mnrN2+V8tTb+dGL/WCrgFpRtRaFW7sgm9N9nBX1+Gu7AZsGP2vViLvy+IHr8mXwzsXfVEzGWTVe/Fmxddxv5KR946wLjgGmxjRl63WcZPefw6wB+DnM+h8MszK3qgDI+6nKlm6yMYxzdPJj8/gY+WZn3qCdEQzdyGV5o73f6yR53QxCzZzQqiLUyrOjJBs8yFfev3IJyJPTVVkgQJ5cqA1+OpPnKNC1Zld4I8iqAGVzuSC77JS3mj/KwEzzfv8wjFBZKiXOIigdb3kF0VfRxxq2WrOOUcBZYs60pTYuq8+GojzkdHIWkbZUiFpE1Y6x8pjqRiwgNunmqGd/fflF/aNveoXA5QVIWY6mHYcPGNAqCm6jPpuANhLLWcFALW30spXCBuhCrt8Bqi1FHiKhKrP6AoKKyD5BVytsl5y9rtRPNah/RJQrGu5lGl0p6D4eNEezuexlAPntnRBqe5V5OlHTlLfKXgelOKVCdCfqrZOfNdEEhOGO1wGWSaBk+WrBbceKBtErQOEnAmhB5ZA0sfP1Jlc9yQscD2ijVT3sPHsrGnWVgXpNRK/4bsxT+Mq8eZmjCw+SW5Q1UuaevCX9ZoGnBO3GfRwXeX3eIyhpK86bHkX6rWRocnrkt1eLetC+GbgP6cTvuyv7ly/+9hJGT3cdzzlvLGC3NylaAcvNTtO53G4O0eQzHGi37Ue1Cds9R59hSn13eZUD3/ps97Y8PlzeCH96eHx8fWJ8/J7fFONfr++Rw/t/AQ==);lineShape=1;fontSize=6;" vertex="1" parent="1">
                    <mxGeometry x="364.1580609777545" y="372.6951764182245" width="11.712200426840095" height="28.073443378530776" as="geometry"/>
                </mxCell>
                <mxCell id="40" value="" style="shape=stencil(lVrZchs3EPwavk7hBubZcf7DVZYjVRTJJcs5/j6DsLAkGru90RtFoQlgzp4ZXOKnH49fvj9cgvvx/vb6+8NfT1/fHy/xl0sITy+PD29P7/bpEj9f4qdvr28Pv729/nz5ev37+5e+sn/64/XP/gt/X3FOvHZQcP9cv1AVH/775tfr+uenl7v1UYqf1xfJ7nh9k5jm9VFcOl7vvWieAU5iI4AioU2AVseddgHBi48zwC5VCKCIgx0cvUN00uYdqgmpEkCWMEupRolMC6akWUrVSSKAFCTWCVCqKNFbysMMNkCWSqSUqiQ3A6IoO5JKnKVUggSyQ/bi4A5OaiSAIGUGZOU7JPFlBlRpRHE5oztk0zS5tP2emzVtP+GJeecmGXaIUol5m0zc7NEmhpAJwI/f2wCO+oPptcyKS41q2iwHAXWoch9Qpc621M2RHUmlASBSsVYvbdZ08hLIkcwhAWA+mDwBmLvMDhTrMMd9gDnQLKVogYcorprUZ9OISQqLxU7CLKUYJRBbal7iHGZiEEc8rgUM9z0Wkju0Lc4NQFAp7EjmorNPW4rJxDQMoLNYQ5XM7mDWOt/BEkBmd1gyUNjCwhGgwQ6JBjLLaCgli60kAxmgVgQE4qKtYTC2NEl3aBj5jEpUZnwNw4zfEsDhDgBoI7QdAdJ8JOMGykyjDf/aAJkGMhNrBkA60wMEYx+HdR2axuyiPgy6cgTIsy15d7YD+LRxCb6+ZNzg5EQB7uwlkcBnDgceanem7pBHfrpTgyPRvi38yhRdmYcmaXCHE5qbRvbYAJWrIYgu1k09NGAMsB0a28HyesY7UIfzUhpKKfL0sOohMT14zInmDlSsfscdaLT3i+I814Nf9OC4aYThLjf/qVzRoLc27nS0Ps9CrYN5HK1vs9YKD0kROW7hUXXT0EYPKRVrG+vfmNVgHUeek4AnSWBWmkZM3xIPt+osGaxaErtvQYJhDOYkmXtYz4ikpQSIp0bYed5My3qmXx1h5LY+Mvai6DFb9bq73srxtMiTnEe3f9/0xWiwBkwfkfqjmj0D9acOr4t9ZkoHNY0K8OYvjA1qHuHg5r+Znb8gp2ijDthfb1xwtn+l+tUmHliRo1FdFbsXFqRZdjUAeKQB2JG820z+nhaxS+xtwaJcvwRkfAtDTA260JxEOyqqC9tM3DCWnk0HMLm2JZcl2lwwAPQ7DBBJrDYAxHYDMG5ngLQojtV3BogLAaZSsh0WTbP2Rb/0ciQWULtYQXGWQrmmXUFA5QCkaqeAXD94pNo+dGnFqHci1n0fzdzldDkTtQ1F5nJmfbrQxxP71pHq/68H6VIonPqoLi53Yt912YHGmbZTc9JI9mFAwQxnnJm1q3WhSL3mZNaXRwv/lrMKk6rJcNZbo71njdhbqNzywkged5yZ6SBgBMhjSnHEecCM0jCTI04VoZPHOadikAxnvRcs1E77HKBgKWx9wQZv4C22gpwkDoEdFvzQQB4KOaz3kRMqrymALWReo6VxvZv9ME7buwMwrhkGflRDVfQX2qNZOvL+pEiIOFUwABsHGQBYvMUIlqF6Y3dJaSwHrp3gzgn5kRCQeeW4tlwKpeb90hV3YDR1rX17cOeGF5bWl/LGFAZ3TzPaTifrpD7NY0R216/g66FFU2nGbAVjb6WTGotFQNcan1lU1LLSZGax0S8dIzZ2WQty01nibeadrhe7smKLyZ8MdtbiJfOmkS60hQ/NLUPhkRrt0RrALfOByHMadB8t6dD+puI4uGcRrgeQUk8jzHfaMmtKlLf03g7kwTyM5XA+MJuGZRIqpbJMgupZ6oR2ovkP9bc0qNYG0CGGo6CHk9ETTQfkm9FzB/KDzW2AwOOww9FRjJQAVMUyNWZqS7ViWI2FtqlqGVLfAI32LWtCTSdHh+Z1aTQnPsKrDmcWKVKPKw1bxynTXmEpOP5KlUaNkhaA0lB5ezKyMTdPX84Uh9Q284yblwovJ9rwzHVpmGcq1lwwkGWeEu0AZdZ0fyXCdoj4mCcr9Ye8kYqN4Hr62sHUBAPnEqjxmSFAl7EkWmOYqcGg06yLjRVTwKKwNDqWj4rcqnpKu+PyUsCcllEHi3NA9yyORJLYLRuk5elZJaZhORMqkz5fITsYBYZQ2QkUMQ2/vCRTz+fBmE+UF7cJa22tlLA6zOq3XtfBekiIqrQ4d0tD0vGJjcMG/TkgfPBEQEv6eiJRhxOSW4v/YD28UVM+4lyoXm+m899fzsPqsL3fZzbt8FlHb+sRcuuwG9Fb9Xz9h97Mnq+3D7cHut+enp+v73vv/48Peu2r62Pg+Plf);lineShape=1;fontSize=6;" vertex="1" parent="1">
                    <mxGeometry x="372.7362449484287" y="369.5601526115686" width="36.68533730565083" height="31.709589133111457" as="geometry"/>
                </mxCell>
                <mxCell id="41" value="" style="shape=stencil(lVvJch03DPwaXVkkwA1nx/kPV1mOVFEklyxn+fuAUXE0A8w0826S3vQbLlgaDeiOP/14+PL9/o7ij7fXl9/v/3r8+vZwx7/cET0+P9y/Pr7pT3f8+Y4/fXt5vf/t9eXn89f3379/GU+On/54+XN8w9/vOJGQ+0BR/Of9L6mGWP/7y6/vgKfH5z2ghS5HgARqAFBDjQcApdALAOTQjkuiEjJaEofajoAWIloShWIAPWQBgBQyHQESCgFADHQ8JY6B8zWgS0jHTXMKEZxS7yGSBeQIADV0BygMACXU5AAdAPK8ph2gglPqPM9kD0CbppD8GxAgBikOAO6hibWlsWlgGq0Hdm9Ax9rUNt1NlwQAJXR3ShCQzy4OAfQeblvS2T1AgN7DTXuoEtpNe6ibB/9fQAvJATIw76r34EwjA1uqORS36YyWxCE5F0VRo6bQnPExCAJVo5B7A4E3lH5ycQR8urQZI/YAsOlSA/FNgBy6M40Ewn1hF4w1tgKfLhojjHmr/YIMlCVIsoAGbCl3d9NxOu05oAZmC+jgHnKe1r8/VmAamU6iRgWBLOsWjWloWADBmCXEIxNghvfAzaZdzvMqzwEliDG+AqO3fp8hJ1yDgE3rismcUpsecg5ILnp3aBrDEAxAYNpVKmJOSW+GwR6U7KRiAQ0YH1Vr3goQBFDqcLyHnCZdOQfkSad2gIQAPMnODoCiBpENAgOAjjVZRpZxMKbojhWH+9RtFlVAAQ6UNGUlBwDmPbg8WwAKM6lYF1WAgNiaOIgBUGgIoB+bJXFoaA8bndoAGRpfUus3p1RxOTCD0PZ8CwSifbOcUqM5JA4zYc7nyxY5zwOrzW/6fESROzTnOwXldBckO8yfnigVyKz6NOJ9XgDxSKmeKRD7NKori0hHi9AtJWQRFPJxRercEQHYMjf1JFQ2pGwryoTLN12SSQvjnXjThurpO5EVqRsYR1PnFhBSxcaK1GE0apM47g6VEW+boWp7PsMj4rnaXVWPTohc3kywRlejdKk/o7TpkmCaUsiFW5o6T8MKOs9iiXNRG4FhxRQ8Re8XVao2YxaBOVksRdV6BjF/NTgTt7Qmg05DdsdaiEbsZel4xa1CEpyczfU0v+IqJfMxJXfB6axbqxM9BuTH3Tq+0CyArgCmAhPG+a9PBrsByqxnLpd0vDhpsIocgeF4rNJXbzDkSwQTF5djU8RJUBGmfNFXdHTV7WRN0DaaDZB6TKgq1JzRj8YkOMIMwNFFhxaKNl2nkrozJkjX2sx7G2DBUTcqtLPvBKKSAkwmVA9avMHE1aGFIttQYyoWgBS35AiJ7mFBzI0CrafUUJzpNlcJw1rhxKnLTBeXPupsCZWRIzAd70G2c7sCmPyg/oDKSAXEZgGodtabNkR1AJADaRhyLgod6GZAPjENaEuu/u91CsCX5YvJKAQVN7GRr3Wo2/TZrtklUXRtzZa1LU5meVW9HL+/NkgzXBOgEqQNbLm50hKkIiUb8pQmIRU2Wh1My0dkEtGJVAJFquhosEyN9WL9tpVEkNayrU7VyFE3LJ8UFh2JzrNF85FpQ0dtoUkNNntesULjMAXnj2SrZcZpnNz5w2I8uZ5TnLL+VYQwjHDBQ6qlFbhKGBk5u/NHG6j2AoaOhEKW03TGFaCwy66AX3BassoXF+gzKdoEyx12CsXG9UxQCO5WIcgFSjrVStm54w6Be17gLZcTtRIFoWpvIEfo9I50adBCyb5bbYD7oha0bdSKyyInng7NCBkp2RPiDNUENdJqtsA4sGTXviNoE1485YQLLyfPDgBmUL6Niui7l5iHtIZUb38PBE/Jy+SM6YoX4hWAikcv9Q8A2nRxLXnCQk2dAXQPAN4wOJQHoGMVS4rGKSEtS93X9Y4b6jMl20FZtO9GK801CBetL5PYdFcoE6oHNwNYdLK8QthgGcWuyBnsBLVRo23UDmNB5JRsM0EBKPB9kMWdaoniUq5zGmoDMN6DawUTDmS+2Tw4IhJeXTtbvRxRPN8wVwDSIXxLngj2mXzTnwg2Of1YwQrgKmzapr7OU64bjRgAVBg5RX5QT2B8fryDcFzyAyQK4JtGVAYADZC43s4A3DRmMzIGWpIb5FkA/KjQCuCGkVYAN+60AriBqhXAjWytAG4obAVwY2eE2YwfbBsApCu40TnC4x1+OI9w36+znWlZAbLr4xGUbLvvOS3eUN3sKUFdrjfXpUpQ0+p9frwDoD6exNkl2wHQaIQkF2YiVEjElW9J4FSlOBFsiIdoSXma2k7EQBcn1erUo/eDltSsKJwwwRLX9MBVtIhdUYO6hD5P7nngbrKp5B/rQTqDPl+tDoNyiT5v2JvM/ufV82bOG4u7Q8o1HfCIhY/olLaE66vxCjOrTjNGXQKOnjDGVfCldWd2qME4buF4qqPliN9w47z9GqA/fIz3f3t8enr/74D95/bfAfRP7/9KwJ//BQ==);lineShape=1;fontSize=6;" vertex="1" parent="1">
                    <mxGeometry x="346.3441096212376" y="409.5624950686022" width="26.512174738717647" height="5.2596017658547805" as="geometry"/>
                </mxCell>
                <mxCell id="42" value="" style="shape=stencil(7VvNkh63DXyavbII/uPsOO/hKsvRVhTJJctJ/PbGZIP5dhozPbuHVC66rT4BM0MSDTSa5FP94bePP/364ank3759/fL3D/96/vnbx6f6l6dSnj9//PD1+Zv99VR/fKo//PLl64e/ff3y++efX/7960+b5fbXP778c3vCv1/8VNMsm1fJf+y/qP7nl7++OHx6/vzaYaUeHMYgDiNpQwdhb+hp1KPDSqsQh5ZyRoe6iENJAp80kwpxyCl3dGjkk9ZMC8Zg0zCJQ09toUMjs7RqyhMdMhnDymnALNk7ySfNlQQcWlpkWmccQ/NHnDuUNMGhJiFjmNmHuDtIUrIOYyaBhcupVeLQUj2GxlppNuIgaRzxsAb9pK4YS7b2//3l3GGkAQ58lnpL/ThLS1JlDiWNo8PU1Amme/ZA2B0mHXRTnNZp4U3e0CZmDYsuFkttpK5Hh5oWWbjWUzlO69yn4dzBngdvkNTYJxVH8O6QPRzPHbLnCHcYlvmIQ1VEnAV8IxCtK+XjtA7LGsxhYHgbQgbJGtWmdRwdqv9y7lCTwhgkTZL5asgaI6fK3iBeoNyhL1/Kc4ccHGxaSSwVK4HHlTbQMoiW5ZO4O9i0knUoM/XjoLslAeYwUoVPktRJ5isdi6KBdrExVK/Ku8P0pTx3KEgdDLQM00VSOealZgWFrLQYdzmWLMMgWwdZPuu7A4eo2Docs4ZBqpAxyMCFM0ixrCE9zSN1qM1/uXLIx2k1SBU26ObsaHcQpyvnDtUBuTvsZOLKoRzfYAhpbFpLWseFM4QwTJtDPYaGIYRxPhEcQ7lZBwlj6Nwhp3kMjdJojTOHclxpgxTL3sbVYZIMUeSL1DPEbi+0rC8kGiU7Fb+wl2MSk/0Lz+mbM6nd3vIwY6CpFrTPjO0hKzG0ZpLnhyf13X74iC7sAWgGvULKQkfoG/IKWd+QgTccMb6ARcRQwb6/eaba7cU7p/M6iAGttA+rqR4fb8yZ1Q9f+50d+XRdmAOZGhQrNhPHteoUKuKlbq8DNPINR8eVslrIkI6ppNIO2FYF8oID89Q847cXWlWzd317FDjMLswB5Nnp15V5BXOmDmRcpuwz+9anNxJiGbu/7CF6YQ74yHSZzBxnhs87tEDZufjVMuFQWXufkVtlCu0gBmSaWTPSpEy7hlAJM6VtGYt/ph1Dxj4s34AP1CHhdMpH9kAT60YERZJKG2FxOvpIS5l+O5iPm8QB5pNCWxB8i5YPQfAZRePmoEJ4iL5t3hdNHIK1eN2kJZATFpWysrfdD3OlGXji01kjZGh6n3kP5vRj2vuGWse7JjIUeZ7fIUfyIMioyfAQC+WAq7LZ2eADTUzaC6LvuEmpGaHNyGHGtNQon8mhyfOk+ba6Wn2qrlYVKUSn894nmPPKp+/LwLWCOW2jkP4ILfIlFQVzxsmD2CRca8IAFq7HYUe3q8kXBF7wYyYTUVGVkqRM1fXa8ljVQj6mY/fBm9GBWC00CEYMMaWtJYCvUk19ekQ9zJmIo0jIK92bUWc7D3OW9BRzZKU6tKYKCpSzrQvzFggKfXrDRohBW1FKaj6YK3N8OkvYGvQ/KmEq5vdGVarlaHir+Wr4MWTeF8p4jUrICyXn5nnqyryAuZCJXLilWp0PXZljRE62eYl0v97IRivAg5oriI934MNM0Gm8F5wZpkIo1qZKFS9FEZ7rBCfgyzTeK8Y7033DHlzju+RYytqd2Ijxzicy0B+e9N5lPrHIc+Ft4G59o2xpIGWuN3V1vQdN3Snv2+DRvN98VcrIUBvKaPs5ggtzoJ28DO+f+qrIs81CbJ650BU1f0quJMjZlNQKqj+FYjXHeedSVBAY2TmEjMWm3/B3YNidbnBmrHyDoklco3i0WYx2ftcJrs2/6wT/H52g4FYDb57BfFCGHcw7beKCOa+rwbzSqh1mptyY4xYe3af9vhnw5mX6vhnwSHr/080AxZlhbCkUeXH+f2EOE1luzOcAc3Z8qyCprZSg7HLMK/5On96DHklWNWzHDmoehK5J0VSxo1wUqw0zgd5wYNxoz7Qt63gKToSeFewYBlL4GU88xyfVw/SioYC+Txrlb6FfkU4L2sTkJIOKb9M37nf7SYn5Qgoni9a0cIZclIbywvm8SQqKof/A/Tluc9hx34+IXzl0QDoX2CVuK3JhTcK54rutwhIE1kFrijmA5LSpqMyhYgW1hWEqq1SUnTaVgL2h4QmYmqmeKC0clhN+ziN214XSXkMKnLOvzWWXKwcFAepmHSYeW6qTH8cLYkhV2pBtaIHmU/zax7mDIIBa5W8oob3tvvlw7hAyfJv0bNp2+A40GqXrsPW0cGJW+JnciRWwFz7okJZ6o2nJoh+OOnc+SzU06n1SRdCiH/rXvujmWa24ydmV7g9Y9EPhH+Jc9tyhYyyNQpsGgwvow6NR6r2dwAXq0v0ywLmDYn0bg3bWBhfYeBuLDrqV8AalFbQFPMxMlbbW8RjX5EedWyANs9Ki28LxzslFVwMk0LDZ6aWnHg6gTH7O3gAJsthUKl8aIOF628qUKfUQfKvQXSGDSwEZpVHpwuACDc4aNJGNeJ2HHzkfQf1eyi9uhU5ahYbGLFiytNBW3QIBtnOV74nOEHzaaIOxwp0N5Rx61TDozu/0ddTXzIGlyu0S4HEddPAdl4w8WgdlAjbrUNh10pte21VJRQeWjG2IkMh08U2miVR6uzHKtoQXXj5TpfKDKnINVZqMN4cRHFj7oEjhVGm7ujn04HDzhoUOVLfI4bzQdu+WifbnHmznVHGndbsdzJZOkQBtU81XAtQaVVrlVEOiUSpqbw7xDXzQeMAnc7Xs/Vem7x3sj8cN7V+eP316ueD9+v/xRrf99HIbvP74Jw==);lineShape=1;fontSize=6;" vertex="1" parent="1">
                    <mxGeometry x="78.1372607968841" y="260.647745648639" width="208.11906377433618" height="147.56122687169045" as="geometry"/>
                </mxCell>
                <mxCell id="43" value="&lt;font style=&quot;font-size: 18px;&quot;&gt;wese hi agar no of elements odd ho to halka sa change hoga method&amp;nbsp;&lt;/font&gt;" style="text;html=1;align=center;verticalAlign=middle;resizable=0;points=[];autosize=1;strokeColor=none;fillColor=none;fontSize=6;" vertex="1" parent="1">
                    <mxGeometry x="43.78999999999998" y="540" width="580" height="40" as="geometry"/>
                </mxCell>
            </root>
        </mxGraphModel>
    </diagram>
</mxfile>